<svg width="131" height="110" viewBox="0 0 131 110" fill="none" xmlns="http://www.w3.org/2000/svg">
<path d="M18.6759 29.0622C18.5749 29.0622 18.3728 29.0622 18.2718 28.9642L4.22742 22.8935C3.62119 22.5998 3.41911 22.1102 3.62119 21.6206C3.9243 21.0332 4.53054 20.8373 5.03573 21.0332L19.1811 27.1039C19.6863 27.2997 19.8884 27.8872 19.6863 28.3768C19.4842 28.8663 19.0801 29.0622 18.6759 29.0622Z" fill="#0066C5"/>
<path d="M107.791 29.16C107.387 29.16 107.084 28.9642 106.882 28.5726C106.68 28.083 106.882 27.4955 107.387 27.2997L115.268 23.8726C115.773 23.6768 116.38 23.8726 116.582 24.3622C116.784 24.8518 116.582 25.4393 116.077 25.6351L108.196 29.0621C107.994 29.16 107.893 29.16 107.791 29.16Z" fill="#0066C5"/>
<path d="M119.714 24.2645C119.31 24.2645 119.007 24.0687 118.805 23.677C118.603 23.1875 118.805 22.6 119.31 22.4041L126.989 19.075C127.494 18.8792 128.1 19.075 128.302 19.5646C128.504 20.0542 128.302 20.6417 127.797 20.8375L120.118 24.1666C119.916 24.2645 119.815 24.2645 119.714 24.2645Z" fill="#0066C5"/>
<path d="M15.2404 46.0989H-2.54235C-3.14858 46.0989 -3.55273 45.7073 -3.55273 45.1198C-3.55273 44.5323 -3.14858 44.1406 -2.54235 44.1406H15.2404C15.8466 44.1406 16.2508 44.5323 16.2508 45.1198C16.2508 45.7073 15.7456 46.0989 15.2404 46.0989Z" fill="#0066C5"/>
<path d="M134.061 46.0989H118.299C117.693 46.0989 117.289 45.7073 117.289 45.1198C117.289 44.5323 117.693 44.1406 118.299 44.1406H134.061C134.668 44.1406 135.072 44.5323 135.072 45.1198C135.072 45.7073 134.668 46.0989 134.061 46.0989Z" fill="#0066C5"/>
<path d="M65.4056 1.01008L65.4056 16.7721C65.4056 17.3783 65.0139 17.7825 64.4264 17.7825C63.8389 17.7825 63.4473 17.3783 63.4473 16.7721L63.4473 1.01008C63.4473 0.403854 63.8389 -0.000299471 64.4264 -0.000299497C65.0139 -0.000299522 65.4056 0.403854 65.4056 1.01008Z" fill="#0066C5"/>
<path d="M113.652 90.3561H114.965C115.37 90.3561 115.673 90.6498 115.673 91.0415C115.673 91.4331 115.37 91.7269 114.965 91.7269H113.652C113.248 91.7269 112.945 91.4331 112.945 91.0415C112.945 90.6498 113.248 90.3561 113.652 90.3561ZM112.237 91.0415C112.237 90.6498 111.934 90.3561 111.53 90.3561H110.217C109.812 90.3561 109.509 90.6498 109.509 91.0415C109.509 91.4331 109.812 91.7269 110.217 91.7269H111.53C111.934 91.7269 112.237 91.4331 112.237 91.0415ZM112.54 91.4331C112.136 91.4331 111.833 91.7269 111.833 92.1185V93.3914C111.833 93.7831 112.136 94.0768 112.54 94.0768C112.945 94.0768 113.248 93.7831 113.248 93.3914V92.1185C113.349 91.7269 112.945 91.4331 112.54 91.4331ZM111.833 88.6915V89.9644C111.833 90.3561 112.136 90.6498 112.54 90.6498C112.945 90.6498 113.248 90.3561 113.248 89.9644V88.6915C113.248 88.2998 112.945 88.0061 112.54 88.0061C112.237 88.0061 111.833 88.2998 111.833 88.6915Z" fill="#0066C5"/>
<path d="M54.5898 15.3497H55.9033C56.3075 15.3497 56.6106 15.6435 56.6106 16.0351C56.6106 16.4268 56.3075 16.7205 55.9033 16.7205H54.5898C54.1857 16.7205 53.8826 16.4268 53.8826 16.0351C53.8826 15.6435 54.1857 15.3497 54.5898 15.3497ZM53.1753 16.0351C53.1753 15.6435 52.8722 15.3497 52.468 15.3497H51.1545C50.7504 15.3497 50.4473 15.6435 50.4473 16.0351C50.4473 16.4268 50.7504 16.7205 51.1545 16.7205H52.468C52.8722 16.7205 53.1753 16.4268 53.1753 16.0351ZM53.4784 16.4268C53.0743 16.4268 52.7711 16.7205 52.7711 17.1122V18.3851C52.7711 18.7767 53.0743 19.0705 53.4784 19.0705C53.8826 19.0705 54.1857 18.7767 54.1857 18.3851V17.1122C54.2867 16.7205 53.8826 16.4268 53.4784 16.4268ZM52.7711 13.6852V14.9581C52.7711 15.3497 53.0743 15.6435 53.4784 15.6435C53.8826 15.6435 54.1857 15.3497 54.1857 14.9581V13.6852C54.1857 13.2935 53.8826 12.9998 53.4784 12.9998C53.1753 12.9998 52.7711 13.2935 52.7711 13.6852Z" fill="#0066C5"/>
<path d="M103.548 96.8197C103.548 97.4072 103.75 97.8967 104.154 98.2884C104.558 98.68 105.164 98.8759 105.771 98.8759C106.377 98.8759 106.882 98.68 107.286 98.2884C107.69 97.8967 107.893 97.3092 107.893 96.7218C107.893 95.5468 106.882 94.5676 105.67 94.5676C104.558 94.6655 103.548 95.6447 103.548 96.8197Z" fill="#0066C5"/>
<path d="M41.4473 22.2518C41.4473 22.8393 41.6493 23.3289 42.0535 23.7205C42.4576 24.1122 43.0639 24.308 43.6701 24.308C44.2763 24.308 44.7815 24.1122 45.1857 23.7205C45.5898 23.3289 45.7919 22.7414 45.7919 22.1539C45.7919 20.9789 44.7815 19.9998 43.5691 19.9998C42.4576 20.0977 41.4473 21.0768 41.4473 22.2518Z" fill="#0066C5"/>
<path d="M99.8096 78.0192C102.234 78.4108 104.053 80.3691 104.053 82.817C104.053 85.2649 102.234 87.2231 99.8096 87.6148V91.8251C104.558 91.4335 108.398 87.5169 108.398 82.817C108.398 78.1171 104.659 74.2005 99.8096 73.8088V78.0192Z" fill="#0066C5"/>
<path d="M22.7174 84.2859C19.8883 84.2859 17.5645 82.0338 17.5645 79.2922C17.5645 76.5506 19.8883 74.2986 22.7174 74.2986C24.1319 74.2986 25.3444 74.7882 26.3548 75.7673C27.3652 76.7465 27.8704 77.9214 27.8704 79.2922C27.8704 80.663 27.3652 81.838 26.3548 82.8172C25.3444 83.7963 24.0309 84.2859 22.7174 84.2859ZM22.7174 81.3484C23.3236 81.3484 23.8288 81.1526 24.233 80.761C24.6371 80.3693 24.8392 79.8797 24.8392 79.2922C24.8392 78.7047 24.6371 78.2152 24.233 77.8235C23.8288 77.4319 23.3236 77.236 22.7174 77.236C21.606 77.236 20.5956 78.1173 20.5956 79.2922C20.5956 80.4672 21.505 81.3484 22.7174 81.3484Z" fill="#0066C5"/>
<path d="M90.6002 22.9871C87.7711 22.9871 85.4473 20.735 85.4473 17.9934C85.4473 15.2518 87.7711 12.9998 90.6002 12.9998C92.0148 12.9998 93.2272 13.4893 94.2376 14.4685C95.248 15.4476 95.7532 16.6226 95.7532 17.9934C95.7532 19.3642 95.248 20.5392 94.2376 21.5183C93.2272 22.4975 91.9137 22.9871 90.6002 22.9871ZM90.6002 20.0496C91.2065 20.0496 91.7116 19.8538 92.1158 19.4621C92.52 19.0705 92.722 18.5809 92.722 17.9934C92.722 17.4059 92.52 16.9163 92.1158 16.5247C91.7116 16.133 91.2065 15.9372 90.6002 15.9372C89.4888 15.9372 88.4784 16.8184 88.4784 17.9934C88.4784 19.1684 89.3878 20.0496 90.6002 20.0496Z" fill="#0066C5"/>
<path d="M22.8183 56.5767H21.7069V55.4997C21.7069 54.9122 21.2017 54.4226 20.5955 54.4226C19.9893 54.4226 19.4841 54.9122 19.4841 55.4997V56.5767H18.3727C17.7664 56.5767 17.2612 57.0663 17.2612 57.6538C17.2612 58.2413 17.7664 58.7309 18.3727 58.7309H19.4841V59.8079C19.4841 60.3954 19.9893 60.885 20.5955 60.885C21.2017 60.885 21.7069 60.3954 21.7069 59.8079V58.7309H22.8183C23.4246 58.7309 23.9298 58.2413 23.9298 57.6538C23.9298 56.9684 23.4246 56.5767 22.8183 56.5767Z" fill="#0066C5"/>
<path d="M94.0503 70.48C93.141 70.9696 92.2316 71.3612 91.2212 71.8508C91.4233 72.3404 91.5243 72.732 91.5243 73.3195V78.1174L93.242 78.3132L91.5243 78.2153C91.2212 82.9152 87.1797 86.6359 82.3298 86.6359H69.7V83.9922C69.7 81.8381 67.8813 80.1736 65.7595 80.1736H62.8294C60.6066 80.1736 58.8889 81.936 58.8889 83.9922V86.538H46.1581C41.1062 86.538 36.9636 82.5235 36.9636 77.6278V73.0258C36.9636 72.6341 37.0646 72.3404 37.1657 71.9487C36.1553 71.4592 35.1449 70.9696 34.1345 70.48C34.1345 70.48 34.0335 70.48 34.0335 70.3821C33.7304 71.1654 33.5283 71.9487 33.4272 72.83V73.0258C33.4272 73.1237 33.4272 73.1237 33.4272 73.2216V103.086C33.4272 107.1 36.7615 110.331 40.9041 110.331H87.4828C91.6254 110.331 94.9596 107.1 94.9596 103.086V73.2216C94.9596 72.1446 94.7576 71.1654 94.3534 70.2842C94.3534 70.3821 94.2524 70.3821 94.0503 70.48ZM62.2232 83.7964C62.2232 83.5027 62.4253 83.3068 62.7284 83.3068H65.6585C65.9616 83.3068 66.1637 83.5027 66.1637 83.7964V91.0421C66.1637 91.3358 65.9616 91.5317 65.6585 91.5317H62.7284C62.4253 91.5317 62.2232 91.3358 62.2232 91.0421V83.7964ZM91.6254 103.086C91.6254 105.24 89.8067 107.002 87.5838 107.002H41.0051C38.7823 107.002 36.9636 105.24 36.9636 103.086V85.9505C39.2875 88.3005 42.5207 89.8671 46.1581 89.8671H58.8889V91.0421C58.8889 93.1962 60.7076 94.8608 62.8294 94.8608H65.7595C67.9824 94.8608 69.7 93.0983 69.7 91.0421V89.8671H82.4309C86.0683 89.8671 89.3015 88.3984 91.6254 86.0484V103.086Z" fill="#0066C5"/>
<path d="M64.1432 22.5391H64.0421C63.9411 22.5391 63.739 22.539 63.638 22.637L18.979 37.5201C18.1707 37.8138 17.7665 38.597 18.0696 39.3803C18.2717 39.772 18.5748 40.1637 18.979 40.2616L33.3264 45.0594V64.4466C33.3264 65.0341 33.6296 65.5236 34.1347 65.8173C53.0289 75.5108 73.0345 76.3921 94.0505 65.8173C94.5557 65.5236 94.8588 65.0341 94.8588 64.4466V45.0594L107.186 40.9471V55.9279C106.983 56.1238 106.68 56.3196 106.478 56.5154C105.872 57.1029 105.367 57.7884 104.761 58.6696C103.649 60.2362 102.639 62.0966 102.639 63.957C102.639 67.1882 105.367 69.9298 108.802 69.9298C112.136 69.9298 114.965 67.2861 114.965 63.957C114.965 62.0966 113.955 60.2362 112.945 58.6696C112.44 57.8863 111.833 57.1029 111.227 56.5154C110.924 56.2217 110.621 55.8301 110.217 55.6343V38.8908C110.217 38.2054 109.813 37.6179 109.206 37.422L76.2678 26.5535L71.2158 24.889L64.6483 22.7348C64.4463 22.539 64.3452 22.5391 64.1432 22.5391ZM64.1432 25.6723L70.2055 27.7286L75.2574 29.3931L104.053 38.9888L64.1432 52.3051L24.233 38.9888L55.6559 28.5118L78.1875 36.0513C78.9958 36.3451 79.9052 35.9534 80.2083 35.1701C80.5114 34.3868 80.1072 33.5055 79.2989 33.2118L60.5058 26.9452L64.1432 25.6723ZM85.6644 35.4637C84.856 35.4637 84.1488 36.2472 84.2498 37.0305C84.2498 37.618 84.654 38.2054 85.2602 38.4012L89.3017 39.772C90.11 40.0658 91.0194 39.6741 91.3225 38.8908C91.6256 38.1074 91.2215 37.2262 90.4132 36.9325H90.3121L86.3716 35.5618C86.2706 35.4638 86.0685 35.4637 85.9675 35.4637C85.7654 35.4637 85.7654 35.4637 85.6644 35.4637ZM36.3576 46.2344L63.5369 55.3405C63.84 55.4384 64.2442 55.4384 64.5473 55.3405L91.7267 46.2344V57.5926C72.0242 67.1882 53.9383 66.4049 36.2566 57.5926V46.2344H36.3576ZM109.004 58.9633C109.408 59.3549 109.813 59.9425 110.217 60.53C111.025 61.8029 111.732 63.5653 111.732 64.0549C111.732 65.5236 110.52 66.6986 109.004 66.6986C107.489 66.6986 106.276 65.5236 106.276 64.0549C106.276 63.5653 106.983 61.8029 107.792 60.53C108.196 59.9425 108.6 59.3549 109.004 58.9633ZM91.8277 60.9216V63.4674C72.1252 73.0631 54.0393 72.2798 36.3576 63.4674V60.9216C53.9383 69.2443 72.4283 69.9297 91.8277 60.9216Z" fill="#0066C5"/>
</svg>
