<svg width="129" height="80" viewBox="0 0 129 80" fill="none" xmlns="http://www.w3.org/2000/svg">
<path d="M12.4404 5.56291V1.72185C12.4404 0.927144 11.7756 0.264893 10.9779 0.264893C10.1801 0.264893 9.51533 0.927144 9.51533 1.72185V5.56291C9.51533 6.35761 10.1801 7.01986 10.9779 7.01986C11.7756 7.01986 12.4404 6.35761 12.4404 5.56291ZM11.1108 16.8212C10.3131 16.8212 9.64829 16.1589 9.64829 15.3642V11.5232C9.64829 10.7285 10.3131 10.0662 11.1108 10.0662C11.9086 10.0662 12.5734 10.7285 12.5734 11.5232V15.3642C12.4404 16.2914 11.9086 16.8212 11.1108 16.8212ZM8.05278 9.93377H4.19695C3.39919 9.93377 2.73439 9.27152 2.73439 8.47681C2.73439 7.68211 3.39919 7.01986 4.19695 7.01986H8.05278C8.85053 7.01986 9.51533 7.68211 9.51533 8.47681C9.38237 9.40397 8.85053 9.93377 8.05278 9.93377ZM18.0248 9.93377H14.1689C13.3712 9.93377 12.7064 9.27152 12.7064 8.47681C12.7064 7.68211 13.3712 7.01986 14.1689 7.01986H18.0248C18.8225 7.01986 19.4873 7.68211 19.4873 8.47681C19.3543 9.40397 18.8225 9.93377 18.0248 9.93377Z" fill="#0066C5"/>
<path d="M4.59593 17.7485V16.2915C4.59593 15.8942 4.19704 15.4968 3.79816 15.4968C3.39928 15.4968 3.00041 15.8942 3.00041 16.2915V17.7485C3.00041 18.1458 3.39928 18.5432 3.79816 18.5432C4.19704 18.5432 4.59593 18.2783 4.59593 17.7485ZM3.79816 19.3379C4.19704 19.3379 4.59593 19.7352 4.59593 20.1326V21.5895C4.59593 21.9869 4.19704 22.3842 3.79816 22.3842C3.39928 22.3842 3.00041 21.9869 3.00041 21.5895V20.1326C3.00041 19.7352 3.26632 19.3379 3.79816 19.3379ZM3.39929 18.9405C3.39929 19.3379 3.00041 19.7352 2.60153 19.7352H1.13897C0.740087 19.7352 0.34121 19.3379 0.34121 18.9405C0.34121 18.5432 0.740087 18.1458 1.13897 18.1458H2.60153C3.00041 18.1458 3.39929 18.5432 3.39929 18.9405ZM6.45736 19.7352H4.9948C4.59592 19.7352 4.19705 19.3379 4.19705 18.9405C4.19705 18.5432 4.59592 18.1458 4.9948 18.1458H6.45736C6.85624 18.1458 7.25513 18.5432 7.25513 18.9405C7.25513 19.3379 6.85624 19.7352 6.45736 19.7352Z" fill="#0066C5"/>
<path d="M117.08 28.6088C116.415 28.6088 115.75 28.3439 115.351 27.8141C114.82 27.2843 114.554 26.7545 114.554 26.0922C114.554 25.43 114.82 24.7677 115.351 24.3704C115.883 23.8406 116.415 23.5757 117.08 23.5757C118.41 23.5757 119.606 24.6353 119.606 26.0922C119.473 27.4167 118.41 28.6088 117.08 28.6088Z" fill="#0066C5"/>
<path d="M28.3957 79.9999C29.3264 79.9999 29.9912 79.3377 29.9912 78.4105C29.9912 77.4834 29.3264 76.8211 28.3957 76.8211H12.4405C12.0416 76.8211 11.6428 76.6887 11.2439 76.2913C10.845 75.894 10.712 75.6291 10.712 75.0993C10.712 74.1721 11.5098 73.5099 12.3075 73.5099H121.335C122.265 73.5099 122.93 74.3046 122.93 75.0993C122.93 76.0264 122.132 76.6887 121.335 76.6887H106.576C105.645 76.6887 104.98 77.3509 104.98 78.2781C104.98 79.2052 105.645 79.8675 106.576 79.8675H121.335C123.994 79.8675 126.121 77.7483 126.121 75.0993C126.121 72.4503 123.994 70.3311 121.335 70.3311H12.5735C9.91428 70.3311 7.78692 72.4503 7.78692 75.0993C7.78692 76.4238 8.31876 77.6158 9.24948 78.543C10.1802 79.4701 11.3768 79.9999 12.7064 79.9999H28.3957Z" fill="#0066C5"/>
<path d="M49.5364 72.3171H116.149C116.548 72.3171 116.947 71.9197 116.947 71.5224C116.947 70.0654 116.415 68.7409 115.352 67.8138C114.288 66.7542 112.958 66.2244 111.629 66.2244H54.0571C52.5945 66.2244 51.2649 66.7542 50.3342 67.8138C49.2705 68.8734 48.7387 70.1979 48.7387 71.5224C48.7387 71.9197 49.1376 72.3171 49.5364 72.3171ZM115.352 70.7277H50.4672C50.6001 70.0654 50.999 69.4032 51.5308 68.8734C52.1956 68.2111 53.1263 67.8138 54.19 67.8138H111.629C112.692 67.8138 113.623 68.2111 114.288 68.8734C114.82 69.4032 115.219 70.0654 115.352 70.7277Z" fill="#0066C5"/>
<path d="M21.7474 72.3171H43.5528C43.9517 72.3171 44.3506 71.9197 44.3506 71.5224C44.3506 70.0654 43.8187 68.7409 42.7551 67.8138C41.6914 66.7542 40.3618 66.2244 39.0322 66.2244H26.2681C24.8055 66.2244 23.4759 66.7542 22.5452 67.8138C21.4815 68.8734 20.9497 70.1979 20.9497 71.5224C20.9497 71.7873 21.0826 71.9197 21.2156 72.0522C21.3486 72.1846 21.4815 72.3171 21.7474 72.3171ZM42.7551 70.7277H22.6782C22.8111 70.0654 23.21 69.4032 23.7418 68.8734C24.4066 68.2111 25.3373 67.8138 26.401 67.8138H39.1652C40.2288 67.8138 41.1596 68.2111 41.8244 68.8734C42.2232 69.4032 42.4891 70.0654 42.7551 70.7277Z" fill="#0066C5"/>
<path d="M15.6318 24.6355C16.5625 24.6355 17.4932 24.7679 18.4239 24.9004V32.0527C17.6262 31.7878 16.6954 31.5229 15.6318 31.5229C11.2441 31.5229 7.65417 35.0991 7.65417 39.4699C7.65417 43.8408 11.2441 47.4169 15.6318 47.4169C16.5625 47.4169 17.4932 47.2845 18.4239 46.8872V50.1984C18.4239 51.5229 18.6898 52.715 19.2217 53.7746C18.025 54.0395 16.8284 54.1719 15.6318 54.1719C7.38825 54.1719 0.740265 47.5494 0.740265 39.3375C0.740265 31.3905 7.38825 24.6355 15.6318 24.6355Z" fill="#0066C5"/>
<path d="M29.7253 46.8873H102.188C102.454 46.8873 102.587 46.7549 102.72 46.6224C102.853 46.49 102.986 46.2251 102.986 46.0926V7.28469C102.986 6.88734 102.587 6.48999 102.188 6.48999H29.7253C29.3264 6.48999 28.9275 6.88734 28.9275 7.28469V46.0926C28.9275 46.6224 29.3264 46.8873 29.7253 46.8873ZM101.391 45.2979H30.523V8.07939H101.391V45.2979Z" fill="#0066C5"/>
<path d="M63.4971 51.3914C63.4971 52.7159 64.5608 53.7755 65.8904 53.7755C67.22 53.7755 68.2837 52.7159 68.2837 51.3914C68.2837 50.0669 67.22 49.0073 65.8904 49.0073C64.5608 49.0073 63.4971 50.0669 63.4971 51.3914Z" fill="#0066C5"/>
<path d="M73.8678 64.5034C74.0007 64.5034 74.1337 64.5034 74.3996 64.3709C75.1974 64.106 75.7292 63.1789 75.4633 62.3842L73.6019 56.6888C73.3359 55.8941 72.4052 55.3643 71.6075 55.6292C70.8097 55.8941 70.2779 56.8213 70.5438 57.616L72.4052 63.3113C72.5382 63.9736 73.203 64.5034 73.8678 64.5034Z" fill="#0066C5"/>
<path d="M56.8491 67.8147C57.5139 67.8147 58.1787 67.4173 58.3116 66.7551L61.2368 57.7485C61.5027 56.9538 61.1038 56.0266 60.1731 55.7617C59.3753 55.4968 58.4446 55.8942 58.1787 56.8213L55.2536 65.8279C54.9876 66.6226 55.3865 67.5498 56.3172 67.8147C56.5832 67.8147 56.7161 67.8147 56.8491 67.8147Z" fill="#0066C5"/>
<path d="M34.6449 41.4568H97.4019V11.9204H34.6449V41.4568ZM73.868 15.2317H94.2108V21.3244H73.868V15.2317ZM37.304 15.2317H48.8715V26.0926H37.304V15.2317ZM37.304 28.4767H65.2256V38.278H37.304V28.4767ZM66.9541 28.4767H71.0758V32.3178H66.9541V28.4767ZM66.9541 34.3045H71.0758V38.1456H66.9541V34.3045ZM73.868 24.2383H94.2108V38.1456H73.868V24.2383ZM69.6133 15.2317C70.411 15.2317 71.0758 15.8939 71.0758 16.6886C71.0758 17.4833 70.411 18.1456 69.6133 18.1456C68.8155 18.1456 68.1507 17.4833 68.1507 16.6886C68.1507 15.8939 68.6825 15.2317 69.6133 15.2317ZM69.6133 19.2052C70.411 19.2052 71.0758 19.8674 71.0758 20.6621C71.0758 21.4568 70.411 22.1191 69.6133 22.1191C68.8155 22.1191 68.1507 21.4568 68.1507 20.6621C68.1507 19.8674 68.6825 19.2052 69.6133 19.2052ZM69.6133 23.1787C70.411 23.1787 71.0758 23.8409 71.0758 24.6356C71.0758 25.4303 70.411 26.0926 69.6133 26.0926C68.8155 26.0926 68.1507 25.4303 68.1507 24.6356C68.1507 23.8409 68.6825 23.1787 69.6133 23.1787ZM51.5307 15.8939C51.5307 15.4966 51.7967 15.0992 52.1955 15.0992H65.2256C65.6245 15.0992 65.8904 15.3641 65.8904 15.7615C65.8904 16.1588 65.6245 16.4237 65.2256 16.4237H52.1955C51.9296 16.6886 51.5307 16.2913 51.5307 15.8939ZM51.5307 19.0727C51.5307 18.6754 51.7967 18.278 52.1955 18.278H65.2256C65.6245 18.278 65.8904 18.5429 65.8904 18.9403C65.8904 19.3376 65.6245 19.6025 65.2256 19.6025H52.1955C51.9296 19.8674 51.5307 19.4701 51.5307 19.0727ZM51.5307 22.2515C51.5307 21.8542 51.7967 21.4568 52.1955 21.4568H65.2256C65.6245 21.4568 65.8904 21.7217 65.8904 22.1191C65.8904 22.5164 65.6245 22.7813 65.2256 22.7813H52.1955C51.9296 22.9138 51.5307 22.6489 51.5307 22.2515ZM51.5307 25.2979C51.5307 24.9005 51.7967 24.5032 52.1955 24.5032H65.2256C65.6245 24.5032 65.8904 24.7681 65.8904 25.1654C65.8904 25.5628 65.6245 25.8277 65.2256 25.8277H52.1955C51.9296 26.0926 51.5307 25.6952 51.5307 25.2979Z" fill="#0066C5"/>
<path d="M121.866 19.2052C118.277 19.2052 115.218 16.2913 115.218 12.5827C115.218 9.00656 118.144 5.96021 121.866 5.96021C125.456 5.96021 128.514 8.87411 128.514 12.4503C128.514 14.1721 127.85 15.894 126.52 17.086C125.323 18.543 123.728 19.2052 121.866 19.2052ZM121.866 9.13901C119.872 9.13901 118.277 10.7284 118.277 12.5827C118.277 14.5695 119.872 16.1589 121.866 16.1589C122.797 16.1589 123.728 15.7615 124.393 15.0993C125.057 14.437 125.456 13.5099 125.456 12.5827C125.456 10.7284 123.861 9.13901 121.866 9.13901Z" fill="#0066C5"/>
<path d="M101.125 58.543C105.645 58.543 109.368 54.8344 109.368 50.3311V8.21192C109.368 5.96026 108.57 3.97351 106.975 2.38411C105.379 0.794702 103.385 0 101.125 0H30.656C26.1354 0 22.4125 3.70861 22.4125 8.21192V50.3311C22.4125 52.5828 23.2103 54.5695 24.8058 56.1589C26.4013 57.7483 28.3957 58.543 30.656 58.543H101.125ZM101.125 3.17881C102.454 3.17881 103.784 3.70861 104.715 4.63576C105.645 5.56291 106.177 6.88742 106.177 8.21192V50.3311C106.177 53.1126 103.917 55.3642 101.125 55.3642H30.656C29.3264 55.3642 27.9968 54.8344 27.0661 53.9073C26.1354 52.9801 25.6035 51.6556 25.6035 50.3311V8.21192C25.6035 5.43046 27.8638 3.17881 30.656 3.17881H101.125Z" fill="#0066C5"/>
</svg>
