<svg width="39" height="40" viewBox="0 0 39 40" fill="none" xmlns="http://www.w3.org/2000/svg">
<rect width="39" height="40" rx="6" fill="#2CC6D9"/>
<mask id="path-2-outside-1" maskUnits="userSpaceOnUse" x="5" y="6" width="29" height="26" fill="black">
<rect fill="white" x="5" y="6" width="29" height="26"/>
<path d="M24.4247 17.8066C24.5281 18.0718 24.7003 18.3039 24.9069 18.5359C25.3202 18.9337 25.9056 19.1657 26.4911 19.1657C27.4209 19.1657 28.213 18.6354 28.5574 17.8066C28.6263 17.6077 28.5574 17.3757 28.3508 17.3094C28.1441 17.2431 27.9031 17.3094 27.8342 17.5083C27.6276 18.0387 27.0765 18.3702 26.4911 18.3702C26.1122 18.3702 25.7334 18.2376 25.4579 17.9724C25.3202 17.8398 25.2168 17.674 25.148 17.5083C25.0791 17.3094 24.838 17.2099 24.6314 17.3094C24.4592 17.3757 24.3559 17.6077 24.4247 17.8066ZM24.2181 15.6519C24.4247 15.6519 24.5969 15.4862 24.5969 15.2541V15.0552C24.5969 14.8564 24.4247 14.6575 24.2181 14.6575C24.0115 14.6575 23.8393 14.8232 23.8393 15.0552V15.2541C23.8393 15.453 24.0115 15.6519 24.2181 15.6519ZM28.764 15.6519C28.9707 15.6519 29.1429 15.4862 29.1429 15.2541V15.0552C29.1429 14.8564 28.9707 14.6575 28.764 14.6575C28.5574 14.6575 28.3852 14.8232 28.3852 15.0552V15.2541C28.3852 15.453 28.5574 15.6519 28.764 15.6519ZM15.023 17.8066C15.0918 17.6077 15.023 17.3757 14.8163 17.3094C14.6097 17.2431 14.3686 17.3094 14.2997 17.5083C14.0931 18.0387 13.5421 18.3702 12.9566 18.3702C12.5778 18.3702 12.199 18.2376 11.9235 17.9724C11.7857 17.8398 11.6824 17.674 11.6135 17.5083C11.5446 17.3094 11.3036 17.2099 11.0969 17.3094C10.8903 17.4088 10.787 17.6077 10.8903 17.8066C10.9936 18.0718 11.1658 18.3039 11.3724 18.5359C11.7857 18.9337 12.3712 19.1657 12.9566 19.1657C13.852 19.1326 14.6786 18.6022 15.023 17.8066ZM11.0625 15.2541V15.0552C11.0625 14.8564 10.8903 14.6575 10.6837 14.6575C10.477 14.6575 10.3048 14.8232 10.3048 15.0552V15.2541C10.3048 15.453 10.477 15.6519 10.6837 15.6519C10.8903 15.6519 11.0625 15.453 11.0625 15.2541ZM15.2296 15.6519C15.4362 15.6519 15.6084 15.4862 15.6084 15.2541V15.0552C15.6084 14.8564 15.4362 14.6575 15.2296 14.6575C15.023 14.6575 14.8508 14.8232 14.8508 15.0552V15.2541C14.8163 15.453 14.9885 15.6519 15.2296 15.6519ZM32.5867 12.5359C32.7934 12.5359 32.9656 12.3702 32.9656 12.1381V11.0773C32.9656 9.55249 31.6913 8.32597 30.1416 8.32597H29.625L29.5561 8.19337C29.2462 7.46409 28.523 7 27.6964 7H25.0791C22.2895 7 20.0166 9.22099 20.0166 11.9061V19.7293C20.0166 20.8564 20.9809 21.7845 22.1518 21.7845H24.4247V22.3149H15.0574V21.5856C15.5395 21.3536 15.9872 21.0884 16.3661 20.7238C17.1926 19.9613 17.7092 18.9669 17.8469 17.8729C18.639 17.8729 19.2934 17.2431 19.2934 16.4475V15.9503C19.2934 15.6188 19.1556 15.2873 18.949 15.0552L19.8444 11.5746C19.9133 11.3757 19.7755 11.1436 19.5689 11.1105C19.3622 11.0442 19.1556 11.1768 19.0867 11.3757L18.2602 14.6243C18.1569 14.5912 18.0191 14.558 17.8814 14.558V13.2983C17.8814 13.1657 17.8125 13.0663 17.7092 13C17.6059 12.9337 17.4681 12.9006 17.3648 12.9337C15.1952 13.5635 13.301 13.5304 11.889 12.8343C10.8214 12.3039 10.3737 11.5746 10.3737 11.5746C10.2704 11.4088 10.0982 11.3425 9.92602 11.3757C9.75383 11.4088 9.61607 11.5746 9.61607 11.7403C9.61607 12.7017 9.40944 12.9006 8.37628 12.9669C8.16964 12.9669 7.99745 13.1326 7.99745 13.3646V14.5912C7.85969 14.5912 7.72194 14.6243 7.58418 14.6575C7.41199 14.0276 7.30867 13.5635 7.27423 13.3315C7.20536 12.8674 7.2398 11.4088 7.27423 10.9116C7.27423 10.2818 7.79082 9.78453 8.44515 9.78453H9.03061C9.13393 9.78453 9.23725 9.75138 9.30612 9.68508L10.7181 8.32597C11.0625 7.99448 11.4758 7.86188 11.8546 7.96133L16.8138 9.12155C17.0893 9.18785 17.3304 9.22099 17.6059 9.22099C18.398 9.22099 19.1556 8.9558 19.7755 8.49171C19.7755 8.49171 19.8099 8.45856 19.8099 8.49171C19.8444 8.49171 19.8444 8.52486 19.8099 8.52486L19.5689 9.65193C19.5 9.85083 19.6378 10.0497 19.8444 10.116C20.051 10.1823 20.2577 10.0497 20.3265 9.85083L20.6365 8.69061C20.7398 8.35912 20.602 7.99448 20.2921 7.82873C19.9821 7.62983 19.6033 7.66298 19.3278 7.86188C18.8457 8.22652 18.2602 8.42541 17.6747 8.42541C17.4681 8.42541 17.2615 8.39227 17.0548 8.35912L12.0612 7.1989C11.4069 7.03315 10.6837 7.23204 10.2015 7.69613L8.89286 8.98895H8.47959C7.37755 8.98895 6.51658 9.81768 6.51658 10.8785C6.51658 11.011 6.4477 12.8011 6.51658 13.4309C6.55102 13.7624 6.68878 14.326 6.92985 15.1547C6.72321 15.3867 6.6199 15.6851 6.6199 16.0166V16.5138C6.6199 17.2762 7.27423 17.9392 8.06633 17.9392C8.27296 19.5967 9.375 20.989 10.8559 21.6519V22.3812H10.0293C9.78827 22.3812 9.54719 22.4144 9.30612 22.4475C9.09949 22.116 8.7551 21.884 8.34184 21.884H7.37755C6.6199 21.884 6 22.4807 6 23.2099V25.2983C6 25.8287 6.34439 26.2928 6.79209 26.5249V30.6022C6.79209 30.8011 6.96429 31 7.17092 31H18.6735C18.8801 31 19.0523 30.8343 19.0523 30.6022V25.4972C19.0523 24.5691 18.6046 23.7072 17.9503 23.1436H24.3903V23.3425C24.3903 24.4365 26.1122 25.3978 26.2844 25.4972C26.3533 25.5304 26.4222 25.5304 26.4911 25.5304C26.5599 25.5304 26.6288 25.5304 26.6977 25.4972C26.9043 25.3978 28.5918 24.4365 28.5918 23.3425V23.1436H29.4184C30.7615 23.1436 31.8635 24.2044 31.8635 25.4972V30.2376H30.7615V27.6519C30.7615 27.453 30.5893 27.2541 30.3827 27.2541C30.176 27.2541 30.0038 27.4199 30.0038 27.6519V30.2376H23.0472V25.8287C23.0472 25.6298 22.875 25.4309 22.6684 25.4309H20.2921C20.0855 25.4309 19.9133 25.5967 19.9133 25.8287C19.9133 26.0276 20.0855 26.2265 20.2921 26.2265H22.2551V30.6354C22.2551 30.8343 22.4273 31.0331 22.6339 31.0331H32.2423C32.449 31.0331 32.6212 30.8674 32.6212 30.6354V25.4972C32.6212 23.7735 31.1747 22.3812 29.3839 22.3812H28.5574V21.8508H30.8304C32.0013 21.8508 32.9656 20.9227 32.9656 19.7956V13.9613C32.9656 13.7624 32.7934 13.5635 32.5867 13.5635C32.3801 13.5635 32.2079 13.7293 32.2079 13.9613V14.8232C32.0013 14.6906 31.7258 14.5912 31.4503 14.5912V12.7348C31.4503 11.8398 31.1747 11.011 30.6582 10.2818C30.5893 10.1823 30.486 10.1492 30.3827 10.116C30.2793 10.116 30.176 10.116 30.0727 10.2155C28.3508 11.6077 26.1467 12.3702 23.9082 12.3702C23.2883 12.3702 22.6684 12.3039 22.0485 12.2044C21.9452 12.1713 21.8074 12.2044 21.7385 12.2707C21.6352 12.337 21.6008 12.4365 21.6008 12.5691C21.6008 12.6354 21.6008 12.7017 21.6008 12.768V14.6243C21.3253 14.6243 21.0497 14.7238 20.8431 14.8564V11.9392C20.8431 9.65193 22.7717 7.79558 25.1135 7.79558H27.6964C28.1786 7.79558 28.6263 8.09392 28.8329 8.52486L29.0051 8.8895C29.074 9.0221 29.2117 9.12155 29.3839 9.12155H30.176C31.3125 9.12155 32.2079 10.0166 32.2079 11.1105V12.1713C32.2079 12.337 32.3801 12.5359 32.5867 12.5359ZM8.82398 17.5083C8.82398 17.3094 8.65179 17.1436 8.44515 17.1436H8.06633C7.6875 17.1436 7.41199 16.8453 7.41199 16.5138V16.0166C7.41199 15.6519 7.72194 15.3867 8.06633 15.3867H8.41071C8.61735 15.3867 8.78954 15.221 8.78954 14.989V13.7293C9.61607 13.6298 10.0638 13.2983 10.2704 12.7017C10.5459 12.9669 10.9247 13.2652 11.4413 13.5304C13.301 14.4586 15.4362 14.2597 17.0548 13.8619V14.9558C17.0548 15.1547 17.227 15.3536 17.4337 15.3536H17.7781C18.1569 15.3536 18.4324 15.6519 18.4324 15.9834V16.4807C18.4324 16.8453 18.1224 17.1105 17.7781 17.1105H17.4337C17.227 17.1105 17.0548 17.2762 17.0548 17.4751C16.986 18.5028 16.5383 19.4641 15.7806 20.1934C15.4018 20.558 14.9541 20.8232 14.4719 21.0221C13.9898 21.221 13.4732 21.3204 12.9222 21.3204C12.3712 21.3204 11.8546 21.221 11.3724 21.0221C11.3724 21.0221 11.3724 21.0221 11.338 21.0221C9.92602 20.4254 8.89286 19.0994 8.82398 17.5083ZM14.2653 21.9171V23.3094C14.2653 23.6409 14.1276 23.9724 13.8865 24.2044C13.6454 24.4365 13.301 24.5691 12.9566 24.5691C12.2334 24.5691 11.648 24.0055 11.648 23.3094V21.9171C12.0612 22.0166 12.5089 22.0829 12.9566 22.0829C13.4043 22.0829 13.8176 22.0166 14.2653 21.9171ZM6.79209 25.2983V23.2099C6.79209 22.8785 7.0676 22.6464 7.37755 22.6464H8.34184C8.51403 22.6464 8.68622 22.779 8.68622 22.9779V25.5635C8.68622 25.7293 8.54847 25.895 8.34184 25.895H7.37755C7.0676 25.895 6.79209 25.6298 6.79209 25.2983ZM18.2946 25.4972V30.2376H17.1926V27.6519C17.1926 27.453 17.0204 27.2541 16.8138 27.2541C16.6071 27.2541 16.4349 27.4199 16.4349 27.6519V30.2376H9.47832V27.6519C9.47832 27.453 9.30612 27.2541 9.09949 27.2541C8.89286 27.2541 8.72066 27.4199 8.72066 27.6519V30.2376H7.58418V26.6575H8.34184C8.96173 26.6575 9.44388 26.1602 9.44388 25.5635V23.1768C9.61607 23.1436 9.8227 23.1105 9.9949 23.1105H10.8214V23.3094C10.8214 24.4365 11.7513 25.3315 12.9222 25.3315C13.4732 25.3315 14.0242 25.1326 14.4031 24.7348C14.8163 24.337 15.023 23.8398 15.023 23.3094V23.1105H15.8495C17.227 23.1105 18.2946 24.1713 18.2946 25.4972ZM27.7997 23.3094C27.7997 23.7403 27.0765 24.337 26.4911 24.7017C25.9056 24.337 25.1824 23.7403 25.1824 23.3094V21.9171C25.5957 22.0166 26.0434 22.0829 26.4911 22.0829C26.9388 22.0829 27.3865 22.0166 27.7997 21.9171V23.3094ZM32.2079 19.7624C32.2079 20.4917 31.6224 21.0552 30.8648 21.0552H29.5561C29.6594 20.9558 29.7972 20.8564 29.9005 20.7569C30.727 19.9945 31.2436 19 31.3814 17.9061C31.6913 17.9061 31.9668 17.8066 32.1735 17.674V19.7624H32.2079ZM20.9464 16.0166C20.9464 15.6519 21.2564 15.3867 21.6008 15.3867H21.9452C22.1518 15.3867 22.324 15.221 22.324 14.989V13.0331C22.8406 13.0994 23.3571 13.1326 23.8393 13.1326C26.1122 13.1326 28.3508 12.4033 30.176 11.0773C30.4515 11.5746 30.5893 12.1713 30.5893 12.7348V14.9558C30.5893 15.1547 30.7615 15.3536 30.9681 15.3536H31.3125C31.6913 15.3536 31.9668 15.6519 31.9668 15.9834V16.4807C31.9668 16.8453 31.6569 17.1105 31.3125 17.1105H30.9681C30.7615 17.1105 30.5893 17.2762 30.5893 17.4751C30.5204 18.5028 30.0727 19.4641 29.3151 20.1934C28.9362 20.558 28.4885 20.8232 28.0064 21.0221C28.0064 21.0221 28.0064 21.0221 27.9719 21.0221C27.4898 21.221 26.9732 21.3204 26.4222 21.3204C25.8712 21.3204 25.3546 21.221 24.8724 21.0221C24.8724 21.0221 24.8724 21.0221 24.838 21.0221C23.3916 20.4586 22.3584 19.0994 22.2551 17.5083C22.2551 17.3094 22.0829 17.1436 21.8763 17.1436H21.5319C21.1531 17.1436 20.8776 16.8453 20.8776 16.5138V16.0166H20.9464ZM21.6008 17.9061C21.773 19.1989 22.4617 20.2928 23.426 21.0552H22.1173C21.3941 21.0552 20.7742 20.4917 20.7742 19.7624V17.674C21.0497 17.8066 21.3253 17.9061 21.6008 17.9061Z"/>
</mask>
<path d="M24.4247 17.8066C24.5281 18.0718 24.7003 18.3039 24.9069 18.5359C25.3202 18.9337 25.9056 19.1657 26.4911 19.1657C27.4209 19.1657 28.213 18.6354 28.5574 17.8066C28.6263 17.6077 28.5574 17.3757 28.3508 17.3094C28.1441 17.2431 27.9031 17.3094 27.8342 17.5083C27.6276 18.0387 27.0765 18.3702 26.4911 18.3702C26.1122 18.3702 25.7334 18.2376 25.4579 17.9724C25.3202 17.8398 25.2168 17.674 25.148 17.5083C25.0791 17.3094 24.838 17.2099 24.6314 17.3094C24.4592 17.3757 24.3559 17.6077 24.4247 17.8066ZM24.2181 15.6519C24.4247 15.6519 24.5969 15.4862 24.5969 15.2541V15.0552C24.5969 14.8564 24.4247 14.6575 24.2181 14.6575C24.0115 14.6575 23.8393 14.8232 23.8393 15.0552V15.2541C23.8393 15.453 24.0115 15.6519 24.2181 15.6519ZM28.764 15.6519C28.9707 15.6519 29.1429 15.4862 29.1429 15.2541V15.0552C29.1429 14.8564 28.9707 14.6575 28.764 14.6575C28.5574 14.6575 28.3852 14.8232 28.3852 15.0552V15.2541C28.3852 15.453 28.5574 15.6519 28.764 15.6519ZM15.023 17.8066C15.0918 17.6077 15.023 17.3757 14.8163 17.3094C14.6097 17.2431 14.3686 17.3094 14.2997 17.5083C14.0931 18.0387 13.5421 18.3702 12.9566 18.3702C12.5778 18.3702 12.199 18.2376 11.9235 17.9724C11.7857 17.8398 11.6824 17.674 11.6135 17.5083C11.5446 17.3094 11.3036 17.2099 11.0969 17.3094C10.8903 17.4088 10.787 17.6077 10.8903 17.8066C10.9936 18.0718 11.1658 18.3039 11.3724 18.5359C11.7857 18.9337 12.3712 19.1657 12.9566 19.1657C13.852 19.1326 14.6786 18.6022 15.023 17.8066ZM11.0625 15.2541V15.0552C11.0625 14.8564 10.8903 14.6575 10.6837 14.6575C10.477 14.6575 10.3048 14.8232 10.3048 15.0552V15.2541C10.3048 15.453 10.477 15.6519 10.6837 15.6519C10.8903 15.6519 11.0625 15.453 11.0625 15.2541ZM15.2296 15.6519C15.4362 15.6519 15.6084 15.4862 15.6084 15.2541V15.0552C15.6084 14.8564 15.4362 14.6575 15.2296 14.6575C15.023 14.6575 14.8508 14.8232 14.8508 15.0552V15.2541C14.8163 15.453 14.9885 15.6519 15.2296 15.6519ZM32.5867 12.5359C32.7934 12.5359 32.9656 12.3702 32.9656 12.1381V11.0773C32.9656 9.55249 31.6913 8.32597 30.1416 8.32597H29.625L29.5561 8.19337C29.2462 7.46409 28.523 7 27.6964 7H25.0791C22.2895 7 20.0166 9.22099 20.0166 11.9061V19.7293C20.0166 20.8564 20.9809 21.7845 22.1518 21.7845H24.4247V22.3149H15.0574V21.5856C15.5395 21.3536 15.9872 21.0884 16.3661 20.7238C17.1926 19.9613 17.7092 18.9669 17.8469 17.8729C18.639 17.8729 19.2934 17.2431 19.2934 16.4475V15.9503C19.2934 15.6188 19.1556 15.2873 18.949 15.0552L19.8444 11.5746C19.9133 11.3757 19.7755 11.1436 19.5689 11.1105C19.3622 11.0442 19.1556 11.1768 19.0867 11.3757L18.2602 14.6243C18.1569 14.5912 18.0191 14.558 17.8814 14.558V13.2983C17.8814 13.1657 17.8125 13.0663 17.7092 13C17.6059 12.9337 17.4681 12.9006 17.3648 12.9337C15.1952 13.5635 13.301 13.5304 11.889 12.8343C10.8214 12.3039 10.3737 11.5746 10.3737 11.5746C10.2704 11.4088 10.0982 11.3425 9.92602 11.3757C9.75383 11.4088 9.61607 11.5746 9.61607 11.7403C9.61607 12.7017 9.40944 12.9006 8.37628 12.9669C8.16964 12.9669 7.99745 13.1326 7.99745 13.3646V14.5912C7.85969 14.5912 7.72194 14.6243 7.58418 14.6575C7.41199 14.0276 7.30867 13.5635 7.27423 13.3315C7.20536 12.8674 7.2398 11.4088 7.27423 10.9116C7.27423 10.2818 7.79082 9.78453 8.44515 9.78453H9.03061C9.13393 9.78453 9.23725 9.75138 9.30612 9.68508L10.7181 8.32597C11.0625 7.99448 11.4758 7.86188 11.8546 7.96133L16.8138 9.12155C17.0893 9.18785 17.3304 9.22099 17.6059 9.22099C18.398 9.22099 19.1556 8.9558 19.7755 8.49171C19.7755 8.49171 19.8099 8.45856 19.8099 8.49171C19.8444 8.49171 19.8444 8.52486 19.8099 8.52486L19.5689 9.65193C19.5 9.85083 19.6378 10.0497 19.8444 10.116C20.051 10.1823 20.2577 10.0497 20.3265 9.85083L20.6365 8.69061C20.7398 8.35912 20.602 7.99448 20.2921 7.82873C19.9821 7.62983 19.6033 7.66298 19.3278 7.86188C18.8457 8.22652 18.2602 8.42541 17.6747 8.42541C17.4681 8.42541 17.2615 8.39227 17.0548 8.35912L12.0612 7.1989C11.4069 7.03315 10.6837 7.23204 10.2015 7.69613L8.89286 8.98895H8.47959C7.37755 8.98895 6.51658 9.81768 6.51658 10.8785C6.51658 11.011 6.4477 12.8011 6.51658 13.4309C6.55102 13.7624 6.68878 14.326 6.92985 15.1547C6.72321 15.3867 6.6199 15.6851 6.6199 16.0166V16.5138C6.6199 17.2762 7.27423 17.9392 8.06633 17.9392C8.27296 19.5967 9.375 20.989 10.8559 21.6519V22.3812H10.0293C9.78827 22.3812 9.54719 22.4144 9.30612 22.4475C9.09949 22.116 8.7551 21.884 8.34184 21.884H7.37755C6.6199 21.884 6 22.4807 6 23.2099V25.2983C6 25.8287 6.34439 26.2928 6.79209 26.5249V30.6022C6.79209 30.8011 6.96429 31 7.17092 31H18.6735C18.8801 31 19.0523 30.8343 19.0523 30.6022V25.4972C19.0523 24.5691 18.6046 23.7072 17.9503 23.1436H24.3903V23.3425C24.3903 24.4365 26.1122 25.3978 26.2844 25.4972C26.3533 25.5304 26.4222 25.5304 26.4911 25.5304C26.5599 25.5304 26.6288 25.5304 26.6977 25.4972C26.9043 25.3978 28.5918 24.4365 28.5918 23.3425V23.1436H29.4184C30.7615 23.1436 31.8635 24.2044 31.8635 25.4972V30.2376H30.7615V27.6519C30.7615 27.453 30.5893 27.2541 30.3827 27.2541C30.176 27.2541 30.0038 27.4199 30.0038 27.6519V30.2376H23.0472V25.8287C23.0472 25.6298 22.875 25.4309 22.6684 25.4309H20.2921C20.0855 25.4309 19.9133 25.5967 19.9133 25.8287C19.9133 26.0276 20.0855 26.2265 20.2921 26.2265H22.2551V30.6354C22.2551 30.8343 22.4273 31.0331 22.6339 31.0331H32.2423C32.449 31.0331 32.6212 30.8674 32.6212 30.6354V25.4972C32.6212 23.7735 31.1747 22.3812 29.3839 22.3812H28.5574V21.8508H30.8304C32.0013 21.8508 32.9656 20.9227 32.9656 19.7956V13.9613C32.9656 13.7624 32.7934 13.5635 32.5867 13.5635C32.3801 13.5635 32.2079 13.7293 32.2079 13.9613V14.8232C32.0013 14.6906 31.7258 14.5912 31.4503 14.5912V12.7348C31.4503 11.8398 31.1747 11.011 30.6582 10.2818C30.5893 10.1823 30.486 10.1492 30.3827 10.116C30.2793 10.116 30.176 10.116 30.0727 10.2155C28.3508 11.6077 26.1467 12.3702 23.9082 12.3702C23.2883 12.3702 22.6684 12.3039 22.0485 12.2044C21.9452 12.1713 21.8074 12.2044 21.7385 12.2707C21.6352 12.337 21.6008 12.4365 21.6008 12.5691C21.6008 12.6354 21.6008 12.7017 21.6008 12.768V14.6243C21.3253 14.6243 21.0497 14.7238 20.8431 14.8564V11.9392C20.8431 9.65193 22.7717 7.79558 25.1135 7.79558H27.6964C28.1786 7.79558 28.6263 8.09392 28.8329 8.52486L29.0051 8.8895C29.074 9.0221 29.2117 9.12155 29.3839 9.12155H30.176C31.3125 9.12155 32.2079 10.0166 32.2079 11.1105V12.1713C32.2079 12.337 32.3801 12.5359 32.5867 12.5359ZM8.82398 17.5083C8.82398 17.3094 8.65179 17.1436 8.44515 17.1436H8.06633C7.6875 17.1436 7.41199 16.8453 7.41199 16.5138V16.0166C7.41199 15.6519 7.72194 15.3867 8.06633 15.3867H8.41071C8.61735 15.3867 8.78954 15.221 8.78954 14.989V13.7293C9.61607 13.6298 10.0638 13.2983 10.2704 12.7017C10.5459 12.9669 10.9247 13.2652 11.4413 13.5304C13.301 14.4586 15.4362 14.2597 17.0548 13.8619V14.9558C17.0548 15.1547 17.227 15.3536 17.4337 15.3536H17.7781C18.1569 15.3536 18.4324 15.6519 18.4324 15.9834V16.4807C18.4324 16.8453 18.1224 17.1105 17.7781 17.1105H17.4337C17.227 17.1105 17.0548 17.2762 17.0548 17.4751C16.986 18.5028 16.5383 19.4641 15.7806 20.1934C15.4018 20.558 14.9541 20.8232 14.4719 21.0221C13.9898 21.221 13.4732 21.3204 12.9222 21.3204C12.3712 21.3204 11.8546 21.221 11.3724 21.0221C11.3724 21.0221 11.3724 21.0221 11.338 21.0221C9.92602 20.4254 8.89286 19.0994 8.82398 17.5083ZM14.2653 21.9171V23.3094C14.2653 23.6409 14.1276 23.9724 13.8865 24.2044C13.6454 24.4365 13.301 24.5691 12.9566 24.5691C12.2334 24.5691 11.648 24.0055 11.648 23.3094V21.9171C12.0612 22.0166 12.5089 22.0829 12.9566 22.0829C13.4043 22.0829 13.8176 22.0166 14.2653 21.9171ZM6.79209 25.2983V23.2099C6.79209 22.8785 7.0676 22.6464 7.37755 22.6464H8.34184C8.51403 22.6464 8.68622 22.779 8.68622 22.9779V25.5635C8.68622 25.7293 8.54847 25.895 8.34184 25.895H7.37755C7.0676 25.895 6.79209 25.6298 6.79209 25.2983ZM18.2946 25.4972V30.2376H17.1926V27.6519C17.1926 27.453 17.0204 27.2541 16.8138 27.2541C16.6071 27.2541 16.4349 27.4199 16.4349 27.6519V30.2376H9.47832V27.6519C9.47832 27.453 9.30612 27.2541 9.09949 27.2541C8.89286 27.2541 8.72066 27.4199 8.72066 27.6519V30.2376H7.58418V26.6575H8.34184C8.96173 26.6575 9.44388 26.1602 9.44388 25.5635V23.1768C9.61607 23.1436 9.8227 23.1105 9.9949 23.1105H10.8214V23.3094C10.8214 24.4365 11.7513 25.3315 12.9222 25.3315C13.4732 25.3315 14.0242 25.1326 14.4031 24.7348C14.8163 24.337 15.023 23.8398 15.023 23.3094V23.1105H15.8495C17.227 23.1105 18.2946 24.1713 18.2946 25.4972ZM27.7997 23.3094C27.7997 23.7403 27.0765 24.337 26.4911 24.7017C25.9056 24.337 25.1824 23.7403 25.1824 23.3094V21.9171C25.5957 22.0166 26.0434 22.0829 26.4911 22.0829C26.9388 22.0829 27.3865 22.0166 27.7997 21.9171V23.3094ZM32.2079 19.7624C32.2079 20.4917 31.6224 21.0552 30.8648 21.0552H29.5561C29.6594 20.9558 29.7972 20.8564 29.9005 20.7569C30.727 19.9945 31.2436 19 31.3814 17.9061C31.6913 17.9061 31.9668 17.8066 32.1735 17.674V19.7624H32.2079ZM20.9464 16.0166C20.9464 15.6519 21.2564 15.3867 21.6008 15.3867H21.9452C22.1518 15.3867 22.324 15.221 22.324 14.989V13.0331C22.8406 13.0994 23.3571 13.1326 23.8393 13.1326C26.1122 13.1326 28.3508 12.4033 30.176 11.0773C30.4515 11.5746 30.5893 12.1713 30.5893 12.7348V14.9558C30.5893 15.1547 30.7615 15.3536 30.9681 15.3536H31.3125C31.6913 15.3536 31.9668 15.6519 31.9668 15.9834V16.4807C31.9668 16.8453 31.6569 17.1105 31.3125 17.1105H30.9681C30.7615 17.1105 30.5893 17.2762 30.5893 17.4751C30.5204 18.5028 30.0727 19.4641 29.3151 20.1934C28.9362 20.558 28.4885 20.8232 28.0064 21.0221C28.0064 21.0221 28.0064 21.0221 27.9719 21.0221C27.4898 21.221 26.9732 21.3204 26.4222 21.3204C25.8712 21.3204 25.3546 21.221 24.8724 21.0221C24.8724 21.0221 24.8724 21.0221 24.838 21.0221C23.3916 20.4586 22.3584 19.0994 22.2551 17.5083C22.2551 17.3094 22.0829 17.1436 21.8763 17.1436H21.5319C21.1531 17.1436 20.8776 16.8453 20.8776 16.5138V16.0166H20.9464ZM21.6008 17.9061C21.773 19.1989 22.4617 20.2928 23.426 21.0552H22.1173C21.3941 21.0552 20.7742 20.4917 20.7742 19.7624V17.674C21.0497 17.8066 21.3253 17.9061 21.6008 17.9061Z" fill="white"/>
<path d="M24.4247 17.8066C24.5281 18.0718 24.7003 18.3039 24.9069 18.5359C25.3202 18.9337 25.9056 19.1657 26.4911 19.1657C27.4209 19.1657 28.213 18.6354 28.5574 17.8066C28.6263 17.6077 28.5574 17.3757 28.3508 17.3094C28.1441 17.2431 27.9031 17.3094 27.8342 17.5083C27.6276 18.0387 27.0765 18.3702 26.4911 18.3702C26.1122 18.3702 25.7334 18.2376 25.4579 17.9724C25.3202 17.8398 25.2168 17.674 25.148 17.5083C25.0791 17.3094 24.838 17.2099 24.6314 17.3094C24.4592 17.3757 24.3559 17.6077 24.4247 17.8066ZM24.2181 15.6519C24.4247 15.6519 24.5969 15.4862 24.5969 15.2541V15.0552C24.5969 14.8564 24.4247 14.6575 24.2181 14.6575C24.0115 14.6575 23.8393 14.8232 23.8393 15.0552V15.2541C23.8393 15.453 24.0115 15.6519 24.2181 15.6519ZM28.764 15.6519C28.9707 15.6519 29.1429 15.4862 29.1429 15.2541V15.0552C29.1429 14.8564 28.9707 14.6575 28.764 14.6575C28.5574 14.6575 28.3852 14.8232 28.3852 15.0552V15.2541C28.3852 15.453 28.5574 15.6519 28.764 15.6519ZM15.023 17.8066C15.0918 17.6077 15.023 17.3757 14.8163 17.3094C14.6097 17.2431 14.3686 17.3094 14.2997 17.5083C14.0931 18.0387 13.5421 18.3702 12.9566 18.3702C12.5778 18.3702 12.199 18.2376 11.9235 17.9724C11.7857 17.8398 11.6824 17.674 11.6135 17.5083C11.5446 17.3094 11.3036 17.2099 11.0969 17.3094C10.8903 17.4088 10.787 17.6077 10.8903 17.8066C10.9936 18.0718 11.1658 18.3039 11.3724 18.5359C11.7857 18.9337 12.3712 19.1657 12.9566 19.1657C13.852 19.1326 14.6786 18.6022 15.023 17.8066ZM11.0625 15.2541V15.0552C11.0625 14.8564 10.8903 14.6575 10.6837 14.6575C10.477 14.6575 10.3048 14.8232 10.3048 15.0552V15.2541C10.3048 15.453 10.477 15.6519 10.6837 15.6519C10.8903 15.6519 11.0625 15.453 11.0625 15.2541ZM15.2296 15.6519C15.4362 15.6519 15.6084 15.4862 15.6084 15.2541V15.0552C15.6084 14.8564 15.4362 14.6575 15.2296 14.6575C15.023 14.6575 14.8508 14.8232 14.8508 15.0552V15.2541C14.8163 15.453 14.9885 15.6519 15.2296 15.6519ZM32.5867 12.5359C32.7934 12.5359 32.9656 12.3702 32.9656 12.1381V11.0773C32.9656 9.55249 31.6913 8.32597 30.1416 8.32597H29.625L29.5561 8.19337C29.2462 7.46409 28.523 7 27.6964 7H25.0791C22.2895 7 20.0166 9.22099 20.0166 11.9061V19.7293C20.0166 20.8564 20.9809 21.7845 22.1518 21.7845H24.4247V22.3149H15.0574V21.5856C15.5395 21.3536 15.9872 21.0884 16.3661 20.7238C17.1926 19.9613 17.7092 18.9669 17.8469 17.8729C18.639 17.8729 19.2934 17.2431 19.2934 16.4475V15.9503C19.2934 15.6188 19.1556 15.2873 18.949 15.0552L19.8444 11.5746C19.9133 11.3757 19.7755 11.1436 19.5689 11.1105C19.3622 11.0442 19.1556 11.1768 19.0867 11.3757L18.2602 14.6243C18.1569 14.5912 18.0191 14.558 17.8814 14.558V13.2983C17.8814 13.1657 17.8125 13.0663 17.7092 13C17.6059 12.9337 17.4681 12.9006 17.3648 12.9337C15.1952 13.5635 13.301 13.5304 11.889 12.8343C10.8214 12.3039 10.3737 11.5746 10.3737 11.5746C10.2704 11.4088 10.0982 11.3425 9.92602 11.3757C9.75383 11.4088 9.61607 11.5746 9.61607 11.7403C9.61607 12.7017 9.40944 12.9006 8.37628 12.9669C8.16964 12.9669 7.99745 13.1326 7.99745 13.3646V14.5912C7.85969 14.5912 7.72194 14.6243 7.58418 14.6575C7.41199 14.0276 7.30867 13.5635 7.27423 13.3315C7.20536 12.8674 7.2398 11.4088 7.27423 10.9116C7.27423 10.2818 7.79082 9.78453 8.44515 9.78453H9.03061C9.13393 9.78453 9.23725 9.75138 9.30612 9.68508L10.7181 8.32597C11.0625 7.99448 11.4758 7.86188 11.8546 7.96133L16.8138 9.12155C17.0893 9.18785 17.3304 9.22099 17.6059 9.22099C18.398 9.22099 19.1556 8.9558 19.7755 8.49171C19.7755 8.49171 19.8099 8.45856 19.8099 8.49171C19.8444 8.49171 19.8444 8.52486 19.8099 8.52486L19.5689 9.65193C19.5 9.85083 19.6378 10.0497 19.8444 10.116C20.051 10.1823 20.2577 10.0497 20.3265 9.85083L20.6365 8.69061C20.7398 8.35912 20.602 7.99448 20.2921 7.82873C19.9821 7.62983 19.6033 7.66298 19.3278 7.86188C18.8457 8.22652 18.2602 8.42541 17.6747 8.42541C17.4681 8.42541 17.2615 8.39227 17.0548 8.35912L12.0612 7.1989C11.4069 7.03315 10.6837 7.23204 10.2015 7.69613L8.89286 8.98895H8.47959C7.37755 8.98895 6.51658 9.81768 6.51658 10.8785C6.51658 11.011 6.4477 12.8011 6.51658 13.4309C6.55102 13.7624 6.68878 14.326 6.92985 15.1547C6.72321 15.3867 6.6199 15.6851 6.6199 16.0166V16.5138C6.6199 17.2762 7.27423 17.9392 8.06633 17.9392C8.27296 19.5967 9.375 20.989 10.8559 21.6519V22.3812H10.0293C9.78827 22.3812 9.54719 22.4144 9.30612 22.4475C9.09949 22.116 8.7551 21.884 8.34184 21.884H7.37755C6.6199 21.884 6 22.4807 6 23.2099V25.2983C6 25.8287 6.34439 26.2928 6.79209 26.5249V30.6022C6.79209 30.8011 6.96429 31 7.17092 31H18.6735C18.8801 31 19.0523 30.8343 19.0523 30.6022V25.4972C19.0523 24.5691 18.6046 23.7072 17.9503 23.1436H24.3903V23.3425C24.3903 24.4365 26.1122 25.3978 26.2844 25.4972C26.3533 25.5304 26.4222 25.5304 26.4911 25.5304C26.5599 25.5304 26.6288 25.5304 26.6977 25.4972C26.9043 25.3978 28.5918 24.4365 28.5918 23.3425V23.1436H29.4184C30.7615 23.1436 31.8635 24.2044 31.8635 25.4972V30.2376H30.7615V27.6519C30.7615 27.453 30.5893 27.2541 30.3827 27.2541C30.176 27.2541 30.0038 27.4199 30.0038 27.6519V30.2376H23.0472V25.8287C23.0472 25.6298 22.875 25.4309 22.6684 25.4309H20.2921C20.0855 25.4309 19.9133 25.5967 19.9133 25.8287C19.9133 26.0276 20.0855 26.2265 20.2921 26.2265H22.2551V30.6354C22.2551 30.8343 22.4273 31.0331 22.6339 31.0331H32.2423C32.449 31.0331 32.6212 30.8674 32.6212 30.6354V25.4972C32.6212 23.7735 31.1747 22.3812 29.3839 22.3812H28.5574V21.8508H30.8304C32.0013 21.8508 32.9656 20.9227 32.9656 19.7956V13.9613C32.9656 13.7624 32.7934 13.5635 32.5867 13.5635C32.3801 13.5635 32.2079 13.7293 32.2079 13.9613V14.8232C32.0013 14.6906 31.7258 14.5912 31.4503 14.5912V12.7348C31.4503 11.8398 31.1747 11.011 30.6582 10.2818C30.5893 10.1823 30.486 10.1492 30.3827 10.116C30.2793 10.116 30.176 10.116 30.0727 10.2155C28.3508 11.6077 26.1467 12.3702 23.9082 12.3702C23.2883 12.3702 22.6684 12.3039 22.0485 12.2044C21.9452 12.1713 21.8074 12.2044 21.7385 12.2707C21.6352 12.337 21.6008 12.4365 21.6008 12.5691C21.6008 12.6354 21.6008 12.7017 21.6008 12.768V14.6243C21.3253 14.6243 21.0497 14.7238 20.8431 14.8564V11.9392C20.8431 9.65193 22.7717 7.79558 25.1135 7.79558H27.6964C28.1786 7.79558 28.6263 8.09392 28.8329 8.52486L29.0051 8.8895C29.074 9.0221 29.2117 9.12155 29.3839 9.12155H30.176C31.3125 9.12155 32.2079 10.0166 32.2079 11.1105V12.1713C32.2079 12.337 32.3801 12.5359 32.5867 12.5359ZM8.82398 17.5083C8.82398 17.3094 8.65179 17.1436 8.44515 17.1436H8.06633C7.6875 17.1436 7.41199 16.8453 7.41199 16.5138V16.0166C7.41199 15.6519 7.72194 15.3867 8.06633 15.3867H8.41071C8.61735 15.3867 8.78954 15.221 8.78954 14.989V13.7293C9.61607 13.6298 10.0638 13.2983 10.2704 12.7017C10.5459 12.9669 10.9247 13.2652 11.4413 13.5304C13.301 14.4586 15.4362 14.2597 17.0548 13.8619V14.9558C17.0548 15.1547 17.227 15.3536 17.4337 15.3536H17.7781C18.1569 15.3536 18.4324 15.6519 18.4324 15.9834V16.4807C18.4324 16.8453 18.1224 17.1105 17.7781 17.1105H17.4337C17.227 17.1105 17.0548 17.2762 17.0548 17.4751C16.986 18.5028 16.5383 19.4641 15.7806 20.1934C15.4018 20.558 14.9541 20.8232 14.4719 21.0221C13.9898 21.221 13.4732 21.3204 12.9222 21.3204C12.3712 21.3204 11.8546 21.221 11.3724 21.0221C11.3724 21.0221 11.3724 21.0221 11.338 21.0221C9.92602 20.4254 8.89286 19.0994 8.82398 17.5083ZM14.2653 21.9171V23.3094C14.2653 23.6409 14.1276 23.9724 13.8865 24.2044C13.6454 24.4365 13.301 24.5691 12.9566 24.5691C12.2334 24.5691 11.648 24.0055 11.648 23.3094V21.9171C12.0612 22.0166 12.5089 22.0829 12.9566 22.0829C13.4043 22.0829 13.8176 22.0166 14.2653 21.9171ZM6.79209 25.2983V23.2099C6.79209 22.8785 7.0676 22.6464 7.37755 22.6464H8.34184C8.51403 22.6464 8.68622 22.779 8.68622 22.9779V25.5635C8.68622 25.7293 8.54847 25.895 8.34184 25.895H7.37755C7.0676 25.895 6.79209 25.6298 6.79209 25.2983ZM18.2946 25.4972V30.2376H17.1926V27.6519C17.1926 27.453 17.0204 27.2541 16.8138 27.2541C16.6071 27.2541 16.4349 27.4199 16.4349 27.6519V30.2376H9.47832V27.6519C9.47832 27.453 9.30612 27.2541 9.09949 27.2541C8.89286 27.2541 8.72066 27.4199 8.72066 27.6519V30.2376H7.58418V26.6575H8.34184C8.96173 26.6575 9.44388 26.1602 9.44388 25.5635V23.1768C9.61607 23.1436 9.8227 23.1105 9.9949 23.1105H10.8214V23.3094C10.8214 24.4365 11.7513 25.3315 12.9222 25.3315C13.4732 25.3315 14.0242 25.1326 14.4031 24.7348C14.8163 24.337 15.023 23.8398 15.023 23.3094V23.1105H15.8495C17.227 23.1105 18.2946 24.1713 18.2946 25.4972ZM27.7997 23.3094C27.7997 23.7403 27.0765 24.337 26.4911 24.7017C25.9056 24.337 25.1824 23.7403 25.1824 23.3094V21.9171C25.5957 22.0166 26.0434 22.0829 26.4911 22.0829C26.9388 22.0829 27.3865 22.0166 27.7997 21.9171V23.3094ZM32.2079 19.7624C32.2079 20.4917 31.6224 21.0552 30.8648 21.0552H29.5561C29.6594 20.9558 29.7972 20.8564 29.9005 20.7569C30.727 19.9945 31.2436 19 31.3814 17.9061C31.6913 17.9061 31.9668 17.8066 32.1735 17.674V19.7624H32.2079ZM20.9464 16.0166C20.9464 15.6519 21.2564 15.3867 21.6008 15.3867H21.9452C22.1518 15.3867 22.324 15.221 22.324 14.989V13.0331C22.8406 13.0994 23.3571 13.1326 23.8393 13.1326C26.1122 13.1326 28.3508 12.4033 30.176 11.0773C30.4515 11.5746 30.5893 12.1713 30.5893 12.7348V14.9558C30.5893 15.1547 30.7615 15.3536 30.9681 15.3536H31.3125C31.6913 15.3536 31.9668 15.6519 31.9668 15.9834V16.4807C31.9668 16.8453 31.6569 17.1105 31.3125 17.1105H30.9681C30.7615 17.1105 30.5893 17.2762 30.5893 17.4751C30.5204 18.5028 30.0727 19.4641 29.3151 20.1934C28.9362 20.558 28.4885 20.8232 28.0064 21.0221C28.0064 21.0221 28.0064 21.0221 27.9719 21.0221C27.4898 21.221 26.9732 21.3204 26.4222 21.3204C25.8712 21.3204 25.3546 21.221 24.8724 21.0221C24.8724 21.0221 24.8724 21.0221 24.838 21.0221C23.3916 20.4586 22.3584 19.0994 22.2551 17.5083C22.2551 17.3094 22.0829 17.1436 21.8763 17.1436H21.5319C21.1531 17.1436 20.8776 16.8453 20.8776 16.5138V16.0166H20.9464ZM21.6008 17.9061C21.773 19.1989 22.4617 20.2928 23.426 21.0552H22.1173C21.3941 21.0552 20.7742 20.4917 20.7742 19.7624V17.674C21.0497 17.8066 21.3253 17.9061 21.6008 17.9061Z" stroke="white" stroke-width="0.4" mask="url(#path-2-outside-1)"/>
</svg>
