<svg width="14" height="14" viewBox="0 0 14 14" fill="none" xmlns="http://www.w3.org/2000/svg">
<path d="M10.2439 0H3.7561C1.68598 0 0 1.68598 0 3.7561V10.2439C0 12.314 1.68598 14 3.7561 14H10.2439C12.314 14 14 12.314 14 10.2439V3.7561C14 1.68598 12.314 0 10.2439 0ZM7 9.98781C5.37805 9.98781 4.05488 8.66463 4.05488 7.04268C4.05488 5.42073 5.37805 4.09756 7 4.09756C8.62195 4.09756 9.94512 5.42073 9.94512 7.04268C9.94512 8.66463 8.62195 9.98781 7 9.98781ZM10.7348 4.14024C10.2652 4.14024 9.90244 3.7561 9.90244 3.30793C9.90244 2.83841 10.2866 2.47561 10.7348 2.47561C11.2043 2.47561 11.5671 2.85976 11.5671 3.30793C11.5884 3.7561 11.2043 4.14024 10.7348 4.14024Z" fill="white"/>
</svg>
