<svg width="130" height="120" viewBox="0 0 130 120" fill="none" xmlns="http://www.w3.org/2000/svg">
<path d="M116.933 44.5501V40.6662C116.933 39.8424 117.527 39.2539 118.357 39.2539C119.188 39.2539 119.781 39.8424 119.781 40.6662V44.5501C119.781 45.3739 119.188 45.9624 118.357 45.9624C117.527 45.9624 116.933 45.2562 116.933 44.5501ZM118.357 55.8486C119.188 55.8486 119.781 55.2601 119.781 54.4363V50.5524C119.781 49.7286 119.188 49.1401 118.357 49.1401C117.527 49.1401 116.933 49.7286 116.933 50.5524V54.4363C116.933 55.2601 117.527 55.8486 118.357 55.8486ZM121.324 48.9047H125.24C126.071 48.9047 126.664 48.3163 126.664 47.4924C126.664 46.6686 126.071 46.0801 125.24 46.0801H121.324C120.493 46.0801 119.9 46.6686 119.9 47.4924C120.019 48.3163 120.612 48.9047 121.324 48.9047ZM111.356 48.9047H115.272C116.103 48.9047 116.696 48.3163 116.696 47.4924C116.696 46.6686 116.103 46.0801 115.272 46.0801H111.356C110.525 46.0801 109.932 46.6686 109.932 47.4924C109.932 48.3163 110.525 48.9047 111.356 48.9047Z" fill="#0A6DC9"/>
<path d="M124.884 56.7901V55.2601C124.884 54.7894 125.24 54.4363 125.715 54.4363C126.19 54.4363 126.546 54.7894 126.546 55.2601V56.7901C126.546 57.2609 126.19 57.614 125.715 57.614C125.24 57.614 124.884 57.2609 124.884 56.7901ZM125.715 58.3201C125.24 58.3201 124.884 58.6732 124.884 59.144V60.674C124.884 61.1448 125.24 61.4979 125.715 61.4979C126.19 61.4979 126.546 61.1448 126.546 60.674V59.144C126.546 58.7909 126.19 58.3201 125.715 58.3201ZM126.071 57.9671C126.071 58.4378 126.427 58.7909 126.902 58.7909H128.444C128.919 58.7909 129.275 58.4378 129.275 57.9671C129.275 57.4963 128.919 57.1432 128.444 57.1432H126.902C126.427 57.1432 126.071 57.4963 126.071 57.9671ZM122.985 58.7909H124.528C125.003 58.7909 125.359 58.4378 125.359 57.9671C125.359 57.4963 125.003 57.1432 124.528 57.1432H122.985C122.511 57.1432 122.155 57.4963 122.155 57.9671C122.155 58.4378 122.511 58.7909 122.985 58.7909Z" fill="#0A6DC9"/>
<path d="M11.6722 67.6181C12.3842 67.6181 12.9775 67.3828 13.4522 66.912C13.9269 66.4412 14.1642 65.8528 14.1642 65.1466C14.1642 64.4404 13.9269 63.852 13.4522 63.3812C12.9775 62.9104 12.3842 62.675 11.6722 62.675C10.2481 62.675 9.18007 63.852 9.18007 65.1466C9.0614 66.4412 10.2481 67.6181 11.6722 67.6181Z" fill="#0A6DC9"/>
<path d="M113.729 63.7344C112.78 63.7344 111.83 63.8521 111 63.9698V71.149C111.83 70.7959 112.78 70.6782 113.729 70.6782C118.12 70.6782 121.799 74.209 121.799 78.6814C121.799 83.036 118.12 86.6845 113.729 86.6845C112.78 86.6845 111.83 86.5668 111 86.2137V89.5091C111 90.8037 110.644 91.9807 110.169 93.1576C111.356 93.393 112.542 93.6284 113.848 93.6284C122.155 93.6284 128.919 86.9199 128.919 78.6814C128.682 70.4429 122.036 63.7344 113.729 63.7344Z" fill="#0A6DC9"/>
<path d="M65.5486 90.4503C65.5486 91.7449 64.4806 92.8041 63.1752 92.8041C61.8698 92.8041 60.8018 91.7449 60.8018 90.4503C60.8018 89.1557 61.8698 88.0964 63.1752 88.0964C64.4806 88.0964 65.5486 89.1557 65.5486 90.4503Z" fill="#0A6DC9"/>
<path d="M6.68804 58.2031C10.3668 58.2031 13.3336 55.2608 13.3336 51.6123C13.3336 47.9638 10.3668 45.0215 6.68804 45.0215C3.00925 45.0215 0.0424805 47.9638 0.0424805 51.6123C0.0424805 53.3777 0.754505 55.0254 1.94121 56.32C3.24659 57.4969 4.90798 58.2031 6.68804 58.2031ZM6.68804 48.0815C8.70544 48.0815 10.2482 49.6115 10.2482 51.6123C10.2482 53.4954 8.70544 55.1431 6.68804 55.1431C5.73868 55.1431 4.78931 54.79 4.19596 54.0838C3.48393 53.3777 3.12792 52.5538 3.12792 51.6123C3.12792 49.6115 4.67064 48.0815 6.68804 48.0815Z" fill="#0A6DC9"/>
<path d="M99.4884 45.4915H86.4347L87.74 47.1392H98.6577V84.4478H27.3367V47.1392H38.373L39.6784 45.4915H26.6246C26.15 45.4915 25.7939 45.8445 25.7939 46.3153V85.2716C25.7939 85.507 25.9126 85.7424 26.0313 85.8601C26.15 85.9778 26.3873 86.0955 26.6246 86.0955H99.4884C99.9631 86.0955 100.319 85.7424 100.319 85.2716V46.3153C100.319 45.8445 99.9631 45.4915 99.4884 45.4915Z" fill="#0A6DC9"/>
<path d="M116.933 109.517H108.27C108.033 108.575 107.558 107.634 106.846 106.927C105.778 105.868 104.473 105.397 103.049 105.397H90.2324C88.8083 105.397 87.5029 105.986 86.4349 106.927C85.7229 107.634 85.2482 108.575 85.0108 109.517H80.264C80.0267 108.575 79.552 107.634 78.84 106.927C77.7719 105.868 76.4666 105.397 75.0425 105.397H73.8558C73.8558 105.28 73.8558 105.044 73.7371 104.927L71.3637 97.7473L98.5393 97.6296C100.794 97.6296 102.811 96.8058 104.354 95.2758C105.897 93.7458 106.728 91.6273 106.728 89.5088V47.2571C106.728 42.6671 103.049 39.0186 98.4206 39.0186H82.9934L83.9428 42.1963H98.4206C101.269 42.1963 103.523 44.4324 103.523 47.2571V89.5088C103.523 90.8034 103.049 92.0981 101.981 93.0396C100.913 93.9811 99.726 94.5696 98.4206 94.5696H27.4555C24.6074 94.5696 22.3527 92.3334 22.3527 89.5088V47.1394C22.3527 45.8448 22.8274 44.5501 23.8954 43.6086C24.8448 42.6671 26.1502 42.0786 27.4555 42.0786H42.2894L43.2388 38.9009H27.4555C25.2008 38.9009 23.1834 39.7247 21.6407 41.2547C20.098 42.7847 19.2673 44.9032 19.2673 47.0217V89.3911C19.2673 93.9811 22.9461 97.6296 27.5742 97.6296H54.7498L53.4444 101.513C53.3258 102.337 53.8004 103.279 54.6311 103.514C54.7498 103.514 54.9872 103.632 55.1058 103.632C55.8178 103.632 56.4112 103.161 56.6485 102.573L58.1913 97.6296H68.0409L70.533 105.28H17.0125C15.5885 105.28 14.2831 105.868 13.2151 106.81C12.503 107.516 12.0283 108.457 11.791 109.399H7.28152C4.55209 109.399 2.41602 111.517 2.41602 114.224C2.41602 116.931 4.55209 119.05 7.28152 119.05H22.1154C22.9461 119.05 23.7767 118.344 23.7767 117.402C23.7767 116.578 23.0647 115.754 22.1154 115.754H7.28152C6.33215 115.754 5.62013 115.048 5.62013 114.107C5.62013 113.165 6.33215 112.459 7.28152 112.459H116.815C117.764 112.459 118.476 113.165 118.476 114.107C118.476 114.577 118.357 114.93 118.001 115.284C117.645 115.637 117.289 115.754 116.815 115.754H100.794C99.9634 115.754 99.1327 116.46 99.1327 117.402C99.1327 118.226 99.8447 119.05 100.794 119.05H116.815C118.12 119.05 119.307 118.579 120.256 117.637C121.205 116.696 121.68 115.519 121.68 114.224C121.799 111.635 119.544 109.517 116.933 109.517ZM13.4524 109.517C13.6897 108.928 13.9271 108.457 14.4018 107.987C15.1138 107.28 16.0632 106.927 17.0125 106.927H71.9571C72.0757 106.927 72.1944 106.927 72.1944 106.927C72.3131 106.927 72.4317 106.927 72.4317 106.927H74.9238C75.8732 106.927 76.8226 107.28 77.5346 107.987C78.0093 108.457 78.2466 108.928 78.484 109.517H13.4524ZM86.5536 109.517C86.7909 108.928 87.0283 108.457 87.5029 107.987C88.215 107.28 89.1643 106.927 90.1137 106.927H102.93C103.879 106.927 104.829 107.28 105.541 107.987C106.016 108.457 106.253 108.928 106.49 109.517H86.5536Z" fill="#0A6DC9"/>
<path d="M55.2243 62.3221H56.8857C57.3603 62.3221 57.835 61.969 57.835 61.3805V59.7328C57.835 59.262 57.479 58.7913 56.8857 58.7913H55.2243C54.7496 58.7913 54.2749 59.1443 54.2749 59.7328V61.3805C54.3936 61.969 54.7496 62.3221 55.2243 62.3221Z" fill="#0A6DC9"/>
<path d="M62.3449 62.3221H64.0063C64.4809 62.3221 64.9556 61.969 64.9556 61.3805V59.7328C64.9556 59.262 64.5996 58.7913 64.0063 58.7913H62.3449C61.8702 58.7913 61.3955 59.1443 61.3955 59.7328V61.3805C61.3955 61.969 61.8702 62.3221 62.3449 62.3221Z" fill="#0A6DC9"/>
<path d="M60.8018 48.552H65.5487C67.4474 48.552 69.1088 47.022 69.1088 45.0212V40.3135C69.1088 38.4304 67.5661 36.7827 65.5487 36.7827H60.8018C58.9031 36.7827 57.2417 38.3127 57.2417 40.3135V45.0212C57.2417 46.9043 58.7844 48.552 60.8018 48.552Z" fill="#0A6DC9"/>
<path d="M84.5362 53.2598L83.1121 50.4352C82.0441 48.5521 80.6201 46.669 79.196 45.2567C79.196 44.7859 79.196 44.4328 79.0773 43.9621L78.9587 41.1374C78.484 35.8412 77.2973 30.6628 75.5172 26.0727C75.5172 25.8373 75.3985 25.7197 75.2799 25.4843C73.6185 20.4235 69.465 13.1265 64.9555 8.88958C64.7182 8.65419 64.3622 8.30111 64.1248 8.06573C63.5315 7.59495 62.7008 7.59495 62.2261 8.06573C57.4793 12.4204 53.4445 18.5404 50.8337 25.7197C50.8337 25.8373 50.8337 25.8373 50.715 25.955C49.0537 30.6628 47.8669 35.8412 47.2736 41.0197L47.0362 43.8444C47.0362 44.3151 47.0363 44.6682 46.9176 45.139C45.2562 46.7867 43.9508 48.6698 42.8828 50.4352L41.4587 53.2598C39.4413 58.2029 38.9666 63.8522 40.3907 69.266C40.5094 69.8545 41.1027 70.3253 41.6961 70.3253C42.2894 70.3253 42.8828 69.8545 43.0014 69.266C43.9508 65.6175 45.7309 62.9106 47.8669 61.0275C48.223 63.146 48.8163 65.1468 49.4097 67.1475C49.647 67.736 50.1217 68.0891 50.715 68.0891H54.6312C54.2752 69.0306 54.1565 69.9722 54.1565 70.9137C54.1565 75.033 57.1233 78.7991 62.2261 80.9176C62.3448 81.0353 62.5821 81.0353 62.8195 81.0353C63.0568 81.0353 63.1755 81.0353 63.4128 80.9176C68.397 78.7991 71.4824 75.033 71.4824 70.9137C71.4824 69.9722 71.3637 69.0306 71.0077 68.0891H74.9239C75.5172 68.0891 76.1106 67.736 76.2292 67.1475C76.8226 65.1468 77.2973 63.146 77.772 61.0275C80.0267 62.9106 81.8068 65.6175 82.6375 69.266C82.7561 69.8545 83.3495 70.3253 84.0615 70.3253C84.7735 70.3253 85.2482 69.8545 85.4856 69.266C87.0283 63.7345 86.6723 58.2029 84.5362 53.2598ZM42.6454 63.4991C42.5268 59.9683 43.2388 56.4375 44.7815 53.2598C44.7815 53.2598 45.8495 50.7882 47.0362 49.4936C47.0362 49.8467 47.0362 50.0821 47.0362 50.4352L47.1549 53.2598C47.2736 54.7898 47.3923 56.3198 47.6296 57.8498C45.6122 59.2621 43.8321 61.1452 42.6454 63.4991ZM63.1755 11.008C66.9729 14.6565 70.4144 20.4235 72.0758 24.8958H54.1565C55.8179 20.4235 59.378 14.5388 63.1755 11.008ZM63.1755 78.093C59.6153 76.4453 57.3606 73.7383 57.3606 70.9137C57.3606 69.9722 57.5979 69.0306 58.0726 68.0891H60.9207C60.2087 70.443 61.5141 72.5614 63.1755 73.2676C64.7182 72.5614 66.1422 70.443 65.4302 68.0891H68.2783C68.753 69.0306 68.9903 69.9722 68.9903 70.9137C68.8717 73.7383 66.7356 76.4453 63.1755 78.093ZM74.0932 65.2645H68.9903H57.2419H52.1391C51.5457 63.2637 51.0711 61.2629 50.715 59.1444C48.8163 47.8459 50.003 36.4297 53.0885 27.6027H73.0251C76.9413 38.7836 77.6533 52.5536 74.0932 65.2645ZM78.6027 57.8498C78.84 56.3198 78.9587 54.7898 79.0773 53.2598L79.196 51.9652L79.3147 50.5529C79.3147 50.1998 79.3147 49.9644 79.3147 49.6113C79.552 49.9644 79.7894 50.1998 80.0267 50.5529L80.7387 51.8475L81.5694 53.3775C83.1121 56.5552 83.8242 60.086 83.7055 63.6168C82.4001 61.1452 80.6201 59.2621 78.6027 57.8498Z" fill="#0A6DC9"/>
<path d="M69.3463 62.3221H71.0077C71.4824 62.3221 71.9571 61.969 71.9571 61.3805V59.7328C71.9571 59.262 71.6011 58.7913 71.0077 58.7913H69.3463C68.8717 58.7913 68.397 59.1443 68.397 59.7328V61.3805C68.5156 61.969 68.8717 62.3221 69.3463 62.3221Z" fill="#0A6DC9"/>
<path d="M42.4081 35.6057C42.2894 35.6057 42.1707 35.6057 42.0521 35.6057C41.1027 35.3703 40.5093 34.4288 40.7467 33.4872L40.8653 32.8988C41.1027 31.9572 42.0521 31.3688 43.0014 31.6042C43.9508 31.8395 44.5441 32.7811 44.3068 33.7226L44.1881 34.3111C43.9508 35.1349 43.2388 35.6057 42.4081 35.6057Z" fill="#0A6DC9"/>
<path d="M44.1882 29.1327C43.9509 29.1327 43.8322 29.1327 43.5948 29.015C42.6455 28.6619 42.1708 27.7204 42.4081 26.7788C42.5268 26.4257 42.6455 25.955 42.7642 25.6019C43.1202 24.6604 44.0695 24.1896 45.0189 24.5427C45.9683 24.8957 46.4429 25.8373 46.0869 26.7788C45.9683 27.1319 45.8496 27.6027 45.7309 27.9557C45.6122 28.6619 44.9002 29.1327 44.1882 29.1327ZM46.799 22.3065C46.5616 22.3065 46.3243 22.3065 46.0869 22.1888C45.1376 21.8357 44.7816 20.7765 45.1376 19.8349C45.2562 19.4819 45.4936 19.0111 45.6123 18.658C45.9683 17.7165 47.0363 17.3634 47.9857 17.8342C48.935 18.1872 49.291 19.2465 48.8164 20.188C48.6977 20.5411 48.4603 20.8942 48.3417 21.2473C48.1043 21.8357 47.511 22.3065 46.799 22.3065ZM50.2404 15.7157C49.8844 15.7157 49.6471 15.598 49.291 15.4803C48.4603 15.0095 48.223 13.9503 48.6977 13.0088C48.935 12.6557 49.1724 12.3026 49.4097 11.9495C49.8844 11.1257 51.0711 10.8903 51.9018 11.3611C52.7325 11.8318 52.9698 13.0088 52.4952 13.8326C52.2578 14.1857 52.0205 14.5388 51.9018 14.8918C51.4271 15.3626 50.8338 15.7157 50.2404 15.7157ZM54.3939 9.59566C54.0379 9.59566 53.5632 9.47797 53.3259 9.24259C52.6138 8.65412 52.4952 7.47719 53.0885 6.77104C53.3259 6.41796 53.6819 6.06488 53.9192 5.82949C54.5126 5.12333 55.6993 5.00564 56.4113 5.59411C57.1233 6.18257 57.242 7.3595 56.6486 8.06566C56.4113 8.41874 56.1739 8.65412 55.9366 9.0072C55.4619 9.36028 54.9872 9.59566 54.3939 9.59566ZM59.4967 4.29948C59.022 4.29948 58.5474 4.0641 58.1914 3.71102C57.4793 3.00486 57.598 1.82793 58.31 1.23947C58.666 1.00408 58.9034 0.651006 59.2594 0.41562C59.9714 -0.172844 61.1581 -0.172844 61.7515 0.651006C62.3448 1.35716 62.3448 2.53409 61.5141 3.12256C61.1581 3.35794 60.9208 3.59333 60.5648 3.94641C60.3274 4.18179 59.9714 4.29948 59.4967 4.29948Z" fill="#0A6DC9"/>
</svg>
