<svg width="98" height="105" viewBox="0 0 98 105" fill="none" xmlns="http://www.w3.org/2000/svg">
<path d="M28.3227 55.641C28.3227 54.6395 27.4425 53.7632 26.4365 53.7632C25.4305 53.7632 24.5503 54.6395 24.5503 55.641C24.5503 56.6425 25.4305 57.5188 26.4365 57.5188C27.5682 57.5188 28.3227 56.6425 28.3227 55.641Z" fill="#0066C5"/>
<path d="M26.5622 64.1533C27.5682 64.1533 28.4485 63.277 28.4485 62.2755C28.4485 61.274 27.5682 60.3977 26.5622 60.3977C25.5563 60.3977 24.676 61.274 24.676 62.2755C24.676 63.277 25.4305 64.1533 26.5622 64.1533Z" fill="#0066C5"/>
<path d="M41.9035 68.4105C41.5262 66.6579 40.5203 65.1557 39.0113 64.1542C37.5023 63.1527 35.7419 62.7771 33.9814 63.1527L19.1432 66.2823C18.3887 66.4075 17.7599 67.2839 18.0114 68.035C18.2629 68.7861 19.0174 69.412 19.7719 69.1617L34.4844 66.1572C35.4904 65.9068 36.4963 66.1572 37.2508 66.6579C38.1311 67.1587 38.6341 68.035 38.8856 69.0365L42.7837 87.5642C43.161 89.5672 41.9035 91.5702 39.8915 91.9458L28.0713 94.3243C27.5683 93.0725 26.688 91.9458 25.682 91.0695C26.0593 90.4435 26.0593 89.6924 25.5563 89.0665C19.3947 83.3078 16.1252 75.5462 16.1252 67.1587C16.1252 65.9068 16.251 64.6549 16.3767 63.403C16.5025 62.5267 15.8737 61.7756 15.1192 61.7756C14.3648 61.6504 13.4845 62.2764 13.4845 63.0275C13.3588 64.4045 13.233 65.7816 13.233 67.1587C13.233 75.9218 16.6282 84.059 22.6641 90.3183L18.3887 95.5762C10.8438 88.065 6.44266 77.7996 6.44266 67.1587V54.7651C6.44266 51.0095 9.4606 48.005 13.233 48.005H13.8618L21.5324 55.391C21.7839 55.6414 22.1611 55.7666 22.5384 55.7666H22.6641C23.0413 55.7666 23.5443 55.5162 23.7958 55.1407L26.8138 51.385L29.8317 55.1407C30.0832 55.5162 30.4605 55.6414 30.9634 55.6414H31.0892C31.4664 55.6414 31.8437 55.5162 32.0952 55.2659L40.0173 47.8798H40.646C42.4065 47.8798 44.167 48.6309 45.4244 49.8828C46.6819 51.1347 47.4364 52.8873 47.4364 54.6399C47.4364 55.5162 48.0651 56.1422 48.9454 56.1422C49.8256 56.1422 50.4543 55.5162 50.4543 54.6399C50.4543 52.011 49.4483 49.6324 47.5621 47.7546C45.6759 45.8768 43.2867 44.8753 40.646 44.8753H39.7658L35.4904 42.9975V38.1152L40.143 28.7261C40.2688 28.7261 40.3945 28.7261 40.646 28.7261C43.2867 28.7261 45.5502 26.5979 45.5502 23.8438C45.5502 21.966 44.5442 20.4638 43.0352 19.5874C43.5382 13.7036 42.5322 9.32207 39.64 6.69314C37.1251 4.31457 33.9814 3.93901 32.3467 4.0642C31.9694 3.31307 31.2149 2.31158 30.0832 1.43526C27.8198 -0.0669859 24.4246 -0.442548 20.2749 0.558951C13.8618 2.0612 11.5983 6.81832 10.9696 13.7036C10.8438 14.3296 10.7181 15.0807 10.7181 15.7066C10.7181 15.957 10.7181 16.2074 10.7181 16.4578C10.7181 17.2089 10.7181 18.0852 10.7181 18.9615V19.0867C10.7181 19.2119 10.7181 19.3371 10.7181 19.4623C9.2091 20.3386 8.07737 21.966 8.07737 23.7186C8.07737 26.4727 10.4666 28.7261 13.233 28.6009L18.0114 38.2404V42.8723L14.1133 45.0005H13.233C7.82588 45.0005 3.42471 49.382 3.42471 54.7651V67.1587C3.42471 68.035 3.42471 69.0365 3.55046 69.9128C3.17322 70.1632 2.92172 70.4135 2.67023 70.6639C0.909759 72.2913 0.28102 74.5447 0.658263 76.9233L4.55644 95.451C5.18518 98.5807 7.82588 100.709 10.9696 100.834C11.7241 100.834 12.4785 100.208 12.4785 99.3318C12.4785 98.4555 11.8498 97.8296 10.9696 97.8296C9.2091 97.8296 7.70013 96.5777 7.44864 94.8251L3.42471 76.2973C3.29896 75.421 3.42471 74.6699 3.80195 73.9188C5.05943 82.5567 9.08335 90.6939 15.245 97.0785C15.1192 97.0785 14.9935 97.0785 14.8677 97.0785C14.1133 97.3288 13.6103 98.08 13.736 98.9563C14.6163 102.336 17.5084 104.59 21.0294 104.59C25.0533 104.59 28.4485 101.335 28.5742 97.3288L40.3945 94.9503C44.0412 94.1992 46.4304 90.5687 45.6759 86.9383L41.9035 68.4105ZM22.5384 24.5949C22.5384 24.8453 22.5384 24.9705 22.5384 25.0957C22.5384 26.3476 21.5324 27.4742 20.1492 27.4742C19.5204 27.4742 18.8917 27.2239 18.5144 26.8483C18.0114 26.3476 17.8857 25.8468 17.8857 25.2209C17.8857 23.969 18.8917 22.8423 20.2749 22.8423C20.9036 22.8423 21.5324 23.0927 21.9096 23.4682C22.2869 23.7186 22.5384 24.0942 22.5384 24.5949ZM20.2749 30.3536C23.1671 30.3536 25.682 27.975 25.682 24.9705C25.682 24.8453 25.682 24.5949 25.682 24.4697C25.682 23.969 26.0593 23.5934 26.5623 23.5934C27.0653 23.5934 27.4425 23.969 27.4425 24.4697C27.4425 24.5949 27.4425 24.8453 27.4425 24.9705C27.4425 26.3476 27.9455 27.7246 28.9515 28.7261C29.9575 29.7276 31.3407 30.2284 32.7239 30.2284C34.3586 30.2284 35.8676 29.4772 36.8736 28.2254L32.5982 36.9885C32.5982 36.9885 32.5982 36.9885 32.5982 37.1137C31.4664 39.3671 29.203 40.7441 26.688 40.7441C24.1731 40.7441 21.9096 39.3671 20.7779 37.1137C20.7779 37.1137 20.7779 36.9885 20.6521 36.9885L16.5025 28.4757L16.6282 28.6009C17.5084 29.8528 18.8917 30.3536 20.2749 30.3536ZM30.4605 24.5949C30.5862 24.0942 30.8377 23.7186 31.0892 23.3431C31.5922 22.8423 32.0952 22.7171 32.7239 22.7171C33.3527 22.7171 33.9814 22.9675 34.3586 23.3431C34.8616 23.8438 34.9874 24.3446 34.9874 24.9705C34.9874 26.2224 33.9814 27.3491 32.5982 27.3491C31.9694 27.3491 31.3407 27.0987 30.9634 26.7231C30.4605 26.2224 30.3347 25.7216 30.3347 25.0957C30.3347 24.9705 30.3347 24.7201 30.4605 24.5949ZM20.7779 41.996C22.4126 43.2479 24.4246 43.8738 26.5623 43.8738C28.7 43.8738 30.8377 43.1227 32.4724 41.8708V42.9975L26.5623 47.2539L20.7779 43.1227V41.996ZM30.8377 52.1362L28.5742 49.382L33.9814 45.6264L36.3706 47.0035L30.8377 52.1362ZM20.7779 3.43826C24.0473 2.68714 26.5623 2.81232 28.197 3.81382C29.203 4.43976 29.4545 5.19089 29.706 5.56645L28.8257 9.0717C28.5742 9.82282 29.0772 10.6991 29.9575 10.8243C30.0832 10.8243 30.209 10.8243 30.3347 10.8243C30.9634 10.8243 31.5922 10.3236 31.8437 9.69763L32.4724 6.94351C33.7299 6.94351 35.8676 7.19388 37.5023 8.82132C38.7598 10.0732 39.64 11.951 39.8915 14.3296C38.0053 12.5769 35.4904 11.5754 32.8497 11.5754C31.7179 11.5754 30.712 11.7006 29.706 12.0762C28.197 8.44576 24.5503 5.81682 20.5264 5.81682C20.0234 5.81682 19.3947 5.81682 18.8917 5.94201C17.7599 6.19239 16.6282 6.56795 15.6222 7.0687C16.6282 5.0657 18.2629 3.93901 20.7779 3.43826ZM13.3588 25.5964C11.9756 26.0972 10.9696 25.0957 10.9696 23.8438C10.9696 22.9675 11.5983 22.2164 12.3528 22.0912C13.1073 21.966 13.6103 21.3401 13.4845 20.5889V20.2134C13.4845 20.0882 13.4845 19.963 13.4845 19.8378C13.4845 19.2119 13.4845 18.5859 13.6103 17.8348C13.6103 17.8348 13.6103 17.8348 13.6103 17.7096C14.239 14.0792 16.251 10.8243 19.3947 8.82132C19.7719 8.82132 20.0234 8.69613 20.2749 8.69613C23.5443 8.69613 26.4365 11.0747 27.0653 14.2044C27.191 14.7051 27.4425 15.0807 27.9455 15.3311C28.4485 15.5814 28.9515 15.4563 29.3287 15.3311C30.3347 14.7051 31.5922 14.4548 32.7239 14.4548C35.9934 14.4548 38.8856 16.8333 39.5143 19.963V20.0882V20.4638C39.5143 20.5889 39.5143 20.7141 39.5143 20.8393C39.64 21.3401 40.0173 21.7156 40.5203 21.8408C40.5203 21.8408 40.646 21.8408 40.646 21.966H40.7718C41.652 22.0912 42.2807 22.8423 42.2807 23.7186C42.2807 24.9705 41.0233 25.8468 39.7658 25.3461C39.0113 25.0957 38.2568 25.3461 37.8796 25.972C38.0053 25.5964 38.0053 25.2209 38.0053 24.8453C38.0053 23.4682 37.5023 22.0912 36.4963 21.0897C35.4904 20.0882 34.1071 19.4623 32.7239 19.4623C31.3407 19.4623 29.9575 19.963 28.9515 20.9645C28.9515 20.9645 28.9515 21.0897 28.8257 21.0897C28.197 20.5889 27.3168 20.3386 26.4365 20.3386C25.5563 20.3386 24.8018 20.5889 24.1731 21.0897C24.1731 21.0897 24.1731 20.9645 24.0473 20.9645C23.0413 19.963 21.6581 19.4623 20.2749 19.4623C17.3827 19.4623 14.8677 21.8408 14.8677 24.8453C14.8677 25.2209 14.8677 25.5964 14.9935 25.8468C14.6163 25.5964 13.9875 25.3461 13.3588 25.5964ZM19.1432 45.6264L24.2988 49.382L22.1611 52.1362L16.754 46.8783L19.1432 45.6264ZM21.1551 101.585C19.2689 101.585 17.6342 100.459 17.0055 98.7059C17.1312 98.8311 17.257 98.9563 17.3827 99.0815C17.5084 99.2066 17.5084 99.2066 17.6342 99.2066L17.7599 99.3318C17.8857 99.3318 18.1372 99.457 18.2629 99.457C18.5144 99.457 18.6402 99.457 18.7659 99.3318C18.8917 99.2066 19.1432 99.0815 19.2689 98.9563L23.5443 93.5732C24.5503 94.3243 25.1791 95.3258 25.3048 96.4525C25.3048 96.7029 25.3048 96.9533 25.3048 97.0785C25.5563 99.5822 23.5443 101.585 21.1551 101.585Z" fill="#0066C5"/>
<path d="M24.2988 84.6843C23.9215 84.8095 23.7958 85.3103 23.9215 85.6858C24.0473 85.9362 24.2988 86.1866 24.676 86.1866C24.8017 86.1866 24.9275 86.1866 24.9275 86.1866C26.5622 85.4355 27.6939 83.808 27.6939 82.0554C27.6939 80.8035 27.1909 79.6768 26.4365 78.9257C25.5562 78.0494 24.4245 77.6738 23.2928 77.6738C22.0353 77.6738 20.9036 78.1746 20.0233 79.0509C19.7718 79.3013 19.7718 79.802 20.0233 80.0524C20.2748 80.3028 20.7778 80.3028 21.0293 80.0524C21.5323 79.4265 22.4125 79.1761 23.167 79.1761C23.9215 79.1761 24.676 79.4265 25.3047 80.0524C25.8077 80.5531 26.185 81.3043 26.185 82.1806C26.0592 83.1821 25.3047 84.1836 24.2988 84.6843Z" fill="#0066C5"/>
<path d="M95.1479 70.0051C94.8964 69.7548 94.5191 69.5044 94.2676 69.254C94.2676 68.3777 94.3934 67.3762 94.3934 66.4999V54.1063C94.3934 49.4744 91.2497 45.7188 86.8485 44.7173V19.1791C86.8485 14.9227 85.2138 10.9167 82.1959 7.91221C81.8186 7.53664 81.4414 7.28627 81.1899 6.91071C81.0641 6.91071 81.0641 6.78552 80.9384 6.78552C78.0462 4.53215 74.651 3.28027 70.8786 3.28027C70.3756 3.28027 69.9983 3.28027 69.4953 3.40546C69.2439 3.40546 68.9924 3.40546 68.7409 3.53065C68.4894 3.53065 68.2379 3.65583 67.9864 3.65583C67.7349 3.65583 67.3576 3.78102 67.1061 3.78102H66.9804H66.8546C66.4774 3.90621 65.9744 4.0314 65.5972 4.15658C65.4714 4.15658 65.4714 4.15658 65.3457 4.28177C64.9684 4.40696 64.5912 4.53215 64.2139 4.78252C64.2139 4.78252 64.2139 4.78252 64.0882 4.78252C63.9625 4.78252 63.8367 4.90771 63.8367 4.90771C63.3337 5.15808 62.9565 5.40846 62.5792 5.65883C62.4535 5.78402 62.202 5.78402 62.0762 5.90921C61.8247 6.0344 61.699 6.15958 61.4475 6.28477C61.3217 6.40996 61.0703 6.53515 60.9445 6.66033C60.8188 6.78552 60.5673 6.91071 60.4415 7.16108C60.3158 7.28627 60.0643 7.41146 59.9385 7.66183C59.687 7.91221 59.4355 8.16258 59.184 8.41296C59.0583 8.53814 58.8068 8.78852 58.681 8.91371C58.5553 9.16408 58.3038 9.28927 58.1781 9.53964C58.0523 9.66483 57.9266 9.79002 57.8008 10.0404C57.6751 10.2908 57.5493 10.416 57.2978 10.6663C57.1721 10.7915 57.1721 10.9167 57.0463 11.0419C56.7948 11.4175 56.5433 11.9182 56.4176 12.2938C56.2918 12.419 56.2918 12.6693 56.1661 12.7945C56.0403 13.0449 55.9146 13.2953 55.9146 13.5456C55.7888 13.796 55.7888 13.9212 55.6631 14.1716C55.5374 14.4219 55.5374 14.5471 55.4116 14.7975C55.2859 15.1731 55.1601 15.5486 55.1601 16.0494C55.1601 16.1746 55.1601 16.4249 55.0344 16.5501C55.0344 16.9257 54.9086 17.1761 54.9086 17.5516C54.9086 17.6768 54.9086 17.802 54.9086 18.0524C54.9086 18.5531 54.7829 19.0539 54.7829 19.4294V25.5636V45.0929C50.6332 46.2195 47.4895 49.9752 47.4895 54.4819V67.6266C47.4895 68.5029 48.1182 69.1288 48.9985 69.1288C49.8787 69.1288 50.5074 68.5029 50.5074 67.6266V54.4819C50.5074 50.7263 53.5254 47.7218 57.2978 47.7218H58.0523L69.9983 56.6101C70.1241 56.7353 70.2498 56.7353 70.3756 56.7353H70.5013C70.6271 56.7353 70.7528 56.8605 70.8786 56.8605C71.0043 56.8605 71.1301 56.8605 71.2558 56.8605H71.3816C71.5073 56.8605 71.6331 56.7353 71.6331 56.7353C71.6331 56.7353 71.6331 56.7353 71.7588 56.7353L83.8306 47.7218H84.5851H84.7108C84.9623 47.847 85.0881 47.847 85.3396 47.847C85.4653 47.847 85.5911 47.847 85.5911 47.847C88.8605 48.3477 91.2497 51.1019 91.2497 54.4819V66.8755C91.2497 77.5164 86.9743 87.7818 79.3037 95.293L75.154 89.6596C81.1899 83.4002 84.5851 75.263 84.5851 66.4999C84.5851 65.1228 84.4593 63.7458 84.3336 62.3687C84.2078 61.4924 83.4533 60.9917 82.6989 61.1168C81.8186 61.242 81.3156 61.9932 81.4414 62.7443C81.5671 63.9962 81.6929 65.248 81.6929 66.4999C81.6929 74.8875 78.2977 82.6491 72.2618 88.4077C71.7588 88.9084 71.6331 89.7848 72.136 90.4107C71.0043 91.287 70.2498 92.2885 69.7468 93.6656L57.9266 91.287C56.9206 91.0366 56.1661 90.5359 55.5374 89.6596C55.0344 88.7833 54.7829 87.7818 55.0344 86.9054L58.9325 68.3777C59.184 67.3762 59.687 66.6251 60.5673 65.9992C61.4475 65.4984 62.4535 65.248 63.3337 65.4984L78.9264 68.7533C79.8067 68.8785 80.5611 68.3777 80.6869 67.6266C80.8126 66.8755 80.3096 65.9992 79.5552 65.874L73.0163 64.4969C73.0163 64.1213 72.8905 63.871 72.8905 63.4954C72.8905 62.6191 72.2618 61.9932 71.3816 61.9932C71.3816 61.9932 71.3816 61.9932 71.2558 61.9932C71.2558 61.9932 71.2558 61.9932 71.1301 61.9932C70.2498 61.9932 69.6211 62.6191 69.6211 63.4954C69.6211 63.6206 69.6211 63.7458 69.6211 63.7458L63.5852 62.4939C61.8247 62.1183 60.0643 62.4939 58.5553 63.4954C58.1781 63.7458 57.8008 64.1213 57.4236 64.4969C57.4236 64.1213 57.2978 63.871 57.2978 63.4954C57.2978 62.6191 56.6691 61.9932 55.7888 61.9932C54.9086 61.9932 54.2799 62.6191 54.2799 63.4954C54.2799 65.1228 54.7829 66.7503 55.5374 68.1273L51.7649 86.2795C51.3877 88.0321 51.7649 89.7848 52.7709 91.287C53.7769 92.7893 55.2859 93.7907 57.0463 94.1663L68.8666 96.6701C68.9924 100.676 72.2618 103.931 76.4115 103.931C79.9324 103.931 82.8246 101.552 83.7048 98.2975C83.9563 97.5464 83.4533 96.6701 82.5731 96.4197C82.4474 96.4197 82.3216 96.4197 82.1959 96.4197C88.3575 90.0351 92.3814 82.0231 93.7647 73.26C94.1419 74.0111 94.2676 74.8875 94.1419 75.6386L90.2437 94.0411C89.8665 95.7938 88.3575 96.9204 86.7228 97.0456C85.8425 97.0456 85.2138 97.7967 85.2138 98.5479C85.2138 99.4242 85.8425 100.05 86.7228 100.05C89.8665 99.9249 92.5072 97.7968 93.1359 94.6671L97.0341 76.1393C97.5371 73.886 96.7826 71.6326 95.1479 70.0051ZM79.6809 42.2136V37.3312L83.8306 28.9437V44.3417H83.5791L79.6809 42.2136ZM58.0523 44.3417H57.6751V28.9437L61.9505 37.5816V42.2136L58.0523 44.3417ZM57.8008 17.5516C57.8008 17.4264 57.8008 17.3013 57.8008 17.1761C57.8008 16.8005 57.9266 16.4249 58.0523 16.0494C58.0523 15.9242 58.0523 15.799 58.1781 15.6738C58.3038 15.2983 58.4295 14.7975 58.5553 14.422V14.2968C58.9325 13.2953 59.4355 12.419 60.0643 11.5426L60.19 11.4175C60.4415 11.0419 60.693 10.6663 61.0703 10.2908L61.196 10.1656C61.9505 9.41446 62.705 8.78852 63.5852 8.16258C63.5852 8.28777 63.711 8.41296 63.711 8.41296C63.8367 8.9137 64.0882 9.53964 64.3397 10.0404C64.4654 10.2908 64.4654 10.416 64.5912 10.6663C64.8427 11.1671 64.9684 11.5426 65.2199 12.0434C65.3457 12.1686 65.3457 12.2938 65.3457 12.419C64.0882 16.2998 61.3217 19.9302 57.5493 22.4339V18.9287C57.6751 18.5531 57.8008 18.0524 57.8008 17.5516ZM67.6091 6.53514C67.6091 6.53514 67.6091 6.40996 67.6091 6.53514C68.7409 6.28477 69.8726 6.15958 70.8786 6.15958C71.1301 6.15958 71.5073 6.15958 71.7588 6.15958C71.8846 6.15958 72.0103 6.15958 72.2618 6.15958C72.639 6.15958 73.0163 6.28477 73.2678 6.28477H73.3935C74.5253 6.53515 75.5312 6.91071 76.5372 7.41146C76.663 7.53664 76.7887 7.53664 76.9145 7.66183C77.166 7.78702 77.4175 7.91221 77.5432 8.03739C77.7947 8.16258 78.0462 8.28777 78.1719 8.53814C78.2977 8.66333 78.5492 8.78852 78.6749 8.91371C79.0522 9.16408 79.4294 9.53964 79.8067 9.9152C82.3216 12.419 83.5791 15.6738 83.5791 19.0539V22.6843C79.4294 22.0584 75.2797 19.805 71.8846 16.5501C70.3756 15.0479 69.1181 13.4205 68.1121 11.5426C67.8606 11.0419 67.6091 10.6663 67.3576 10.1656C67.3576 10.0404 67.2319 9.9152 67.2319 9.79002C67.1061 9.41445 66.9804 9.16408 66.8546 8.78852C66.8546 8.66333 66.7289 8.53814 66.7289 8.28777C66.6031 7.91221 66.4774 7.66183 66.3517 7.28627C66.3517 7.16108 66.2259 7.03589 66.2259 6.91071C66.2259 6.78552 66.2259 6.78552 66.2259 6.66033C66.8546 6.66033 67.2319 6.53514 67.6091 6.53514ZM76.7887 36.4549C76.7887 36.4549 76.7887 36.5801 76.663 36.5801C75.5312 38.8335 73.2678 40.2105 70.7528 40.2105C68.2379 40.2105 65.9744 38.8335 64.8427 36.5801C64.8427 36.5801 64.8427 36.4549 64.7169 36.4549L62.0762 30.9467H68.6151C68.9924 30.9467 69.3696 30.5711 69.3696 30.1956V28.0674C69.3696 27.3162 69.9983 26.6903 70.7528 26.6903C71.1301 26.6903 71.5073 26.8155 71.7588 27.0659C72.0103 27.3163 72.136 27.6918 72.136 28.0674V30.1956C72.136 30.4459 72.2618 30.5711 72.3875 30.6963C72.5133 30.8215 72.7648 30.9467 72.8905 30.9467H79.3037L76.7887 36.4549ZM67.4834 15.6738C68.2379 16.8005 69.1181 17.802 69.9983 18.6783C71.6331 20.3058 73.5193 21.6828 75.5312 22.8095C74.9025 23.0599 74.3995 23.6858 74.3995 24.4369C74.3995 24.8125 74.5253 25.0629 74.651 25.4384H73.0163C72.8905 25.4384 72.7648 25.4384 72.639 25.5636C72.136 25.1881 71.5073 24.9377 70.8786 24.9377C70.2498 24.9377 69.6211 25.1881 69.1181 25.5636C68.9924 25.4384 68.8666 25.4384 68.7409 25.4384H67.1061C67.2319 25.1881 67.3576 24.8125 67.3576 24.4369C67.3576 23.6858 66.8546 22.9347 66.1002 22.6843C65.9744 22.4339 65.7229 22.3088 65.4714 22.3088H62.705C62.705 22.3088 62.705 22.3088 62.5792 22.3088C64.7169 20.5561 66.3517 18.1776 67.4834 15.6738ZM80.5611 28.8185L80.1839 29.4444H73.7708V27.0659H80.5611V28.8185ZM60.8188 28.4429V27.0659H67.8606V27.9422V29.3193H61.3217L60.8188 28.4429ZM62.705 23.9362H63.711C63.5852 24.1866 63.5852 24.3118 63.5852 24.5621C63.5852 24.9377 63.711 25.3133 63.8367 25.5636H60.0643C59.8128 25.5636 59.687 25.6888 59.5613 25.814L59.4355 25.5636C59.3098 25.4384 59.184 25.3133 59.184 25.1881L59.3098 25.0629C60.19 24.4369 61.0703 23.6858 61.9505 23.0599V23.1851C61.9505 23.6858 62.202 23.9362 62.705 23.9362ZM81.9444 25.9392C81.9444 25.9392 81.9444 25.814 81.8186 25.814C81.6929 25.6888 81.4414 25.5636 81.3156 25.5636H77.9204C78.0462 25.3133 78.1719 24.9377 78.1719 24.5621C78.1719 24.4369 78.1719 24.3118 78.1719 24.1866C79.5552 24.6873 80.8126 25.1881 82.1959 25.4384L81.9444 25.9392ZM64.9684 41.2121C66.6032 42.4639 68.6151 43.0899 70.7528 43.0899C72.8905 43.0899 75.0282 42.3387 76.663 41.0869V42.2136L70.6271 46.7203L64.9684 42.2136V41.2121ZM70.7528 53.23L61.196 45.9692L63.3337 44.8425L69.6211 49.85C69.8726 50.1004 70.2498 50.2255 70.6271 50.2255C71.0043 50.2255 71.2558 50.1004 71.5073 49.9752L78.2977 44.8425L80.4354 45.9692L70.7528 53.23ZM76.4115 100.801C73.8965 100.801 71.8846 98.7982 71.8846 96.2945C71.8846 96.0441 71.8846 95.7938 71.8846 95.6686C72.0103 94.5419 72.7648 93.4152 73.645 92.7893L77.9204 98.1723C78.0462 98.2975 78.1719 98.4227 78.4234 98.5479C78.5492 98.6731 78.8007 98.6731 78.9264 98.6731C79.0522 98.6731 79.3037 98.6731 79.4294 98.5479L79.5552 98.4227C79.6809 98.4227 79.6809 98.2975 79.8067 98.2975C79.9324 98.1723 80.0582 98.0471 80.1839 98.0471C79.9324 99.6746 78.2977 100.801 76.4115 100.801Z" fill="#0066C5"/>
<path d="M63.1917 77.4944C64.0719 77.4944 64.8264 77.87 65.3294 78.3707C65.5809 78.6211 66.0839 78.6211 66.3354 78.3707C66.5869 78.1204 66.5869 77.6196 66.3354 77.3692C65.4552 76.4929 64.3234 75.9922 63.066 75.9922C61.8085 75.9922 60.8025 76.4929 59.9223 77.2441C59.042 78.1204 58.6648 79.2471 58.6648 80.3737C58.6648 82.1264 59.6708 83.7538 61.4312 84.5049C61.557 84.5049 61.6827 84.5049 61.6827 84.5049C61.9342 84.5049 62.3115 84.3797 62.4372 84.0042C62.563 83.6286 62.4372 83.1279 62.06 83.0027C60.9283 82.5019 60.2995 81.5004 60.2995 80.2486C60.2995 79.4974 60.551 78.7463 61.1797 78.1204C61.6827 77.7448 62.4372 77.4944 63.1917 77.4944Z" fill="#0066C5"/>
</svg>
