<svg width="91" height="371" viewBox="0 0 91 371" fill="none" xmlns="http://www.w3.org/2000/svg">
<path fill-rule="evenodd" clip-rule="evenodd" d="M84.8215 330.83C81.7888 330.83 79.3627 328.402 79.3627 325.366C79.3627 322.331 81.7888 319.903 84.8215 319.903C87.8541 319.903 90.2803 321.724 90.2803 324.759C90.2803 327.795 87.8541 330.83 84.8215 330.83ZM79.3627 285.304C79.3627 288.339 81.7888 290.767 84.8215 290.767C87.8541 290.767 90.2803 288.339 90.2803 285.304C90.2803 281.662 87.8541 279.841 84.8215 279.841C81.7888 279.841 79.3627 282.269 79.3627 285.304ZM79.3627 245.242C79.3627 248.259 81.8067 250.705 84.8215 250.705C87.8363 250.705 90.2803 248.259 90.2803 245.242C90.2803 242.225 87.8363 239.779 84.8215 239.779C81.8067 239.779 79.3627 242.225 79.3627 245.242ZM84.8215 210.638C81.8067 210.638 79.3627 208.192 79.3627 205.175C79.3627 202.157 81.8067 199.711 84.8215 199.711C87.8363 199.711 90.2803 202.157 90.2803 205.175C90.2803 208.192 87.8363 210.638 84.8215 210.638ZM79.3627 165.113C79.3627 168.13 81.8067 170.576 84.8215 170.576C87.8363 170.576 90.2803 168.13 90.2803 165.113C90.2803 162.095 87.8363 159.649 84.8215 159.649C81.8067 159.649 79.3627 162.095 79.3627 165.113ZM84.8215 130.508C81.8067 130.508 79.3627 128.062 79.3627 125.045C79.3627 122.028 81.8067 119.582 84.8215 119.582C87.8363 119.582 90.2803 122.028 90.2803 125.045C90.2803 128.062 87.8363 130.508 84.8215 130.508ZM79.3627 85.5877C79.3627 88.605 81.8067 91.051 84.8215 91.051C87.8363 91.051 90.2803 88.605 90.2803 85.5877C90.2803 82.5704 87.8363 80.1244 84.8215 80.1244C81.8067 80.1244 79.3627 82.5704 79.3627 85.5877ZM84.8215 50.9888C81.8067 50.9888 79.3627 48.5428 79.3627 45.5255C79.3627 42.5082 81.8067 40.0622 84.8215 40.0622C87.8363 40.0622 90.2803 42.5082 90.2803 45.5255C90.2803 48.5428 87.8363 50.9888 84.8215 50.9888ZM39.9384 325.372C39.9384 328.389 42.3824 330.835 45.3972 330.835C48.412 330.835 50.8559 328.389 50.8559 325.372C50.8559 322.354 48.412 319.909 45.3972 319.909C42.3824 319.909 39.9384 322.354 39.9384 325.372ZM39.9384 245.242C39.9384 248.259 42.3824 250.705 45.3972 250.705C48.412 250.705 50.8559 248.259 50.8559 245.242C50.8559 242.225 48.412 239.779 45.3972 239.779C42.3824 239.779 39.9384 242.225 39.9384 245.242ZM45.3972 171.186C42.3645 171.186 39.9384 168.758 39.9384 165.723C39.9384 162.687 42.3645 160.259 45.3972 160.259C48.4298 160.259 50.8559 162.687 50.8559 165.723C50.8559 168.758 48.4298 171.186 45.3972 171.186ZM45.3972 91.0564C42.3645 91.0564 39.9384 88.6282 39.9384 85.593C39.9384 82.5579 42.3645 80.1297 45.3972 80.1297C48.4298 80.1297 50.8559 82.5579 50.8559 85.593C50.8559 88.6282 48.4298 91.0564 45.3972 91.0564ZM39.9384 5.46332C39.9384 8.48062 42.3824 10.9266 45.3972 10.9266C48.412 10.9266 50.8559 8.48062 50.8559 5.46332C50.8559 2.44601 48.412 -1.83012e-06 45.3972 -1.9619e-06C42.3824 -2.09368e-06 39.9384 2.44601 39.9384 5.46332ZM0.513537 285.31C0.513537 288.345 2.93966 290.773 5.97231 290.773C9.00496 290.773 11.4311 288.345 11.4311 285.31C11.4311 282.275 9.00496 279.846 5.97231 279.846C2.93966 279.846 0.513537 282.275 0.513537 285.31ZM0.513537 125.655C0.513537 128.691 2.93966 131.119 5.97231 131.119C9.00496 131.119 11.4311 128.691 11.4311 125.655C11.4311 122.62 9.00496 120.192 5.97231 120.192C2.93966 120.192 0.513537 122.62 0.513537 125.655ZM0.513531 85.5931C0.513531 88.6282 2.93966 91.0564 5.9723 91.0564C9.00496 91.0564 11.4311 88.6282 11.4311 85.5931C11.4311 82.5579 9.00496 80.1297 5.9723 80.1297C2.93966 80.1297 0.513531 82.5579 0.513531 85.5931ZM5.97231 171.186C2.93966 171.186 0.513535 168.758 0.513535 165.723C0.513535 162.687 2.93966 160.259 5.97231 160.259C9.00496 160.259 11.4311 162.687 11.4311 165.723C11.4311 168.758 9.00496 171.186 5.97231 171.186ZM0.513533 205.785C0.513533 208.82 2.93966 211.248 5.9723 211.248C9.00496 211.248 11.4311 208.82 11.4311 205.785C11.4311 202.75 9.00496 200.321 5.9723 200.321C2.93966 200.321 0.513533 202.75 0.513533 205.785ZM5.9723 250.705C2.93966 250.705 0.513531 248.277 0.513531 245.242C0.513532 242.207 2.93966 239.779 5.9723 239.779C9.00496 239.779 11.4311 242.207 11.4311 245.242C11.4311 248.277 9.00496 250.705 5.9723 250.705ZM39.9383 46.1325C39.9383 49.1677 42.3645 51.5958 45.3971 51.5958C48.4298 51.5958 50.8559 48.5607 50.8559 45.5255C50.8559 42.4903 48.4298 40.0622 45.3971 40.0622C42.3645 40.0622 39.3318 42.4903 39.9383 46.1325ZM39.9384 125.655C39.9384 128.691 42.3645 131.119 45.3972 131.119C48.4298 131.119 50.8559 128.691 50.8559 125.655C50.8559 122.62 48.4298 120.192 45.3972 120.192C42.3645 120.192 39.9384 122.62 39.9384 125.655ZM45.3972 210.643C42.3824 210.643 39.9384 208.197 39.9384 205.18C39.9384 202.162 42.3824 199.716 45.3972 199.716C48.412 199.716 50.8559 202.162 50.8559 205.18C50.8559 208.197 48.412 210.643 45.3972 210.643ZM45.3972 290.767C42.3824 290.767 39.9384 288.321 39.9384 285.304C39.9384 282.287 42.3824 279.841 45.3972 279.841C48.412 279.841 50.8559 282.287 50.8559 285.304C50.8559 288.321 48.412 290.767 45.3972 290.767ZM84.8215 370.287C81.8067 370.287 79.3627 367.841 79.3627 364.824C79.3627 361.806 81.8067 359.36 84.8215 359.36C87.8363 359.36 90.2803 361.806 90.2803 364.824C90.2803 367.841 87.8363 370.287 84.8215 370.287Z" fill="#EBF0F3"/>
</svg>
