<svg width="15" height="10" viewBox="0 0 15 10" fill="none" xmlns="http://www.w3.org/2000/svg">
<path d="M14.8722 2.1513C14.8722 2.1513 14.7222 1.18203 14.2723 0.732861C13.6974 0.165485 13.0725 0.165485 12.7726 0.141844C10.648 0 7.49859 0 7.49859 0C7.49859 0 4.34918 0 2.24958 0.141844C1.94963 0.165485 1.32475 0.189125 0.74986 0.756501C0.299944 1.18203 0.149972 2.17494 0.149972 2.17494C0.149972 2.17494 0 3.30969 0 4.44444V5.53191C0 6.69031 0.149972 7.82506 0.149972 7.82506C0.149972 7.82506 0.299944 8.79433 0.74986 9.2435C1.32475 9.81087 2.07461 9.78723 2.39955 9.85816C3.59933 9.97636 7.49859 10 7.49859 10C7.49859 10 10.648 10 12.7476 9.85816C13.0476 9.83452 13.6724 9.81087 14.2473 9.26714C14.6972 8.84161 14.8472 7.8487 14.8472 7.8487C14.8472 7.8487 14.9972 6.69031 14.9972 5.55556V4.46809C15.0222 3.30969 14.8722 2.1513 14.8722 2.1513ZM5.94888 6.83215V2.83688L9.99813 4.84634L5.94888 6.83215Z" fill="white"/>
</svg>
